<?xml version="1.0" encoding="utf-8"?>
<!-- Generator: Adobe Illustrator 23.0.2, SVG Export Plug-In . SVG Version: 6.00 Build 0)  -->
<svg version="1.1" id="Layer_1" xmlns="http://www.w3.org/2000/svg" xmlns:xlink="http://www.w3.org/1999/xlink" x="0px" y="0px"
	 viewBox="0 0 3000 2000" style="enable-background:new 0 0 3000 2000;" xml:space="preserve">
<style type="text/css">
	.st0{display:none;fill-rule:evenodd;clip-rule:evenodd;fill:url(#XMLID_9_);}
	.st1{display:none;fill-rule:evenodd;clip-rule:evenodd;fill:url(#XMLID_10_);}
	.st2{display:none;}
	.st3{display:inline;}
	.st4{font-family:'ArialMT';}
	.st5{font-size:196px;}
	.st6{letter-spacing:3;}
	.st7{display:inline;fill:url(#XMLID_11_);stroke:#F4DE6B;stroke-width:2.152;stroke-miterlimit:10;}
	.st8{display:inline;fill:url(#XMLID_12_);stroke:#F4DE6B;stroke-width:2.152;stroke-miterlimit:10;}
	.st9{display:inline;fill:url(#XMLID_13_);stroke:#F4DE6B;stroke-width:2.152;stroke-miterlimit:10;}
	.st10{display:inline;fill:url(#XMLID_14_);stroke:#F4DE6B;stroke-width:2.152;stroke-miterlimit:10;}
	.st11{display:inline;fill:url(#XMLID_15_);stroke:#F4DE6B;stroke-width:2.152;stroke-miterlimit:10;}
	.st12{display:inline;fill:url(#XMLID_16_);stroke:#F4DE6B;stroke-width:2.152;stroke-miterlimit:10;}
	.st13{display:inline;fill:url(#XMLID_17_);stroke:#F4DE6B;stroke-width:2.152;stroke-miterlimit:10;}
	.st14{display:inline;fill:url(#XMLID_18_);stroke:#F4DE6B;stroke-width:2.152;stroke-miterlimit:10;}
	.st15{display:inline;fill:url(#XMLID_19_);stroke:#F4DE6B;stroke-width:2.152;stroke-miterlimit:10;}
	.st16{display:inline;fill:url(#XMLID_20_);stroke:#F4DE6B;stroke-width:2.152;stroke-miterlimit:10;}
	.st17{display:inline;fill:url(#XMLID_21_);stroke:#F4DE6B;stroke-width:2.152;stroke-miterlimit:10;}
	.st18{display:inline;fill:url(#XMLID_22_);stroke:#F4DE6B;stroke-width:2.152;stroke-miterlimit:10;}
	.st19{display:inline;fill:url(#XMLID_23_);stroke:#F4DE6B;stroke-width:2.152;stroke-miterlimit:10;}
	.st20{display:inline;fill:url(#XMLID_24_);stroke:#F4DE6B;stroke-width:2.152;stroke-miterlimit:10;}
	.st21{display:inline;fill:url(#XMLID_25_);stroke:#F4DE6B;stroke-width:2.152;stroke-miterlimit:10;}
	.st22{display:inline;fill:url(#XMLID_26_);stroke:#F4DE6B;stroke-width:2.152;stroke-miterlimit:10;}
	.st23{fill:url(#XMLID_28_);stroke:url(#XMLID_29_);stroke-width:7;stroke-miterlimit:10;}
	.st24{fill:#D4A741;stroke:#D4A741;stroke-miterlimit:10;}
	.st25{display:inline;fill:none;}
	.st26{stroke:#000000;stroke-width:10;stroke-miterlimit:10;}
	.st27{font-family:'OpenSans-Bold';}
	.st28{font-size:172px;}
	.st29{display:inline;fill:none;stroke:#FFEA92;stroke-width:10;stroke-miterlimit:10;}
	.st30{fill:url(#SVGID_1_);}
	.st31{fill:url(#SVGID_2_);}
	.st32{fill:url(#SVGID_3_);}
	.st33{fill:url(#SVGID_4_);}
	.st34{fill:url(#SVGID_5_);}
	.st35{fill:url(#SVGID_6_);}
	.st36{fill:url(#SVGID_7_);}
	.st37{fill:url(#SVGID_8_);}
	.st38{fill:url(#SVGID_9_);}
	.st39{fill:url(#SVGID_10_);}
	.st40{fill:url(#SVGID_11_);}
	.st41{fill:url(#SVGID_12_);}
	.st42{fill:url(#SVGID_13_);}
	.st43{fill:url(#SVGID_14_);stroke:url(#SVGID_15_);stroke-width:6.12;stroke-linecap:round;stroke-miterlimit:10;}
	.st44{stroke:#231F20;stroke-width:7;stroke-miterlimit:10;}
	.st45{stroke:#000000;stroke-miterlimit:10;}
</style>
<radialGradient id="XMLID_9_" cx="35.3955" cy="-1353.6626" r="123.5658" gradientTransform="matrix(1 0 0 1 0 1208)" gradientUnits="userSpaceOnUse">
	<stop  offset="0" style="stop-color:#20222B"/>
	<stop  offset="0.3894" style="stop-color:#1D1F27"/>
	<stop  offset="0.9476" style="stop-color:#13141C"/>
	<stop  offset="1" style="stop-color:#11121B"/>
</radialGradient>
<rect id="XMLID_2_" x="-120.9" y="-167.2" class="st0" width="294.3" height="120.3"/>
<radialGradient id="XMLID_10_" cx="1592.682" cy="-849.314" r="1574.113" gradientTransform="matrix(1 0 0 1 0 1208)" gradientUnits="userSpaceOnUse">
	<stop  offset="0" style="stop-color:#3F424C"/>
	<stop  offset="0.2441" style="stop-color:#3D3F49"/>
	<stop  offset="0.5946" style="stop-color:#353841"/>
	<stop  offset="1" style="stop-color:#2A2C35"/>
</radialGradient>
<rect id="XMLID_4_" class="st1" width="3000" height="2000"/>
<g id="XMLID_27_" class="st2">
	<text id="XMLID_8_" transform="matrix(1 0 0 1 592.5292 1486.1206)" class="st3 st4 st5 st6">INFLUENCER STUDIOS</text>
</g>
<g id="XMLID_3_" class="st2">
	
		<linearGradient id="XMLID_11_" gradientUnits="userSpaceOnUse" x1="896.7" y1="179.7327" x2="896.7" y2="97.1582" gradientTransform="matrix(1 0 0 1 0 1208)">
		<stop  offset="0" style="stop-color:#B2802C"/>
		<stop  offset="5.434960e-02" style="stop-color:#B5852D"/>
		<stop  offset="0.1324" style="stop-color:#C09434"/>
		<stop  offset="0.2249" style="stop-color:#D2AF43"/>
		<stop  offset="0.3275" style="stop-color:#F2DA60"/>
		<stop  offset="0.3333" style="stop-color:#F4DD62"/>
		<stop  offset="0.5161" style="stop-color:#F4E38B"/>
		<stop  offset="0.6613" style="stop-color:#F4DD62"/>
		<stop  offset="1" style="stop-color:#B2802C"/>
	</linearGradient>
	<path id="XMLID_269_" class="st7" d="M906.9,1318.3v84.4h-20.4v-84.4H906.9z"/>
	
		<linearGradient id="XMLID_12_" gradientUnits="userSpaceOnUse" x1="961.75" y1="179.7327" x2="961.75" y2="97.1582" gradientTransform="matrix(1 0 0 1 0 1208)">
		<stop  offset="0" style="stop-color:#B2802C"/>
		<stop  offset="5.434960e-02" style="stop-color:#B5852D"/>
		<stop  offset="0.1324" style="stop-color:#C09434"/>
		<stop  offset="0.2249" style="stop-color:#D2AF43"/>
		<stop  offset="0.3275" style="stop-color:#F2DA60"/>
		<stop  offset="0.3333" style="stop-color:#F4DD62"/>
		<stop  offset="0.5161" style="stop-color:#F4E38B"/>
		<stop  offset="0.6613" style="stop-color:#F4DD62"/>
		<stop  offset="1" style="stop-color:#B2802C"/>
	</linearGradient>
	<path id="XMLID_272_" class="st8" d="M997.5,1318.3v84.4h-15.9l-35.3-47v47H926v-84.4h16.1l35,47.1v-47.1H997.5z"/>
	
		<linearGradient id="XMLID_13_" gradientUnits="userSpaceOnUse" x1="1045.3" y1="179.7327" x2="1045.3" y2="97.1582" gradientTransform="matrix(1 0 0 1 0 1208)">
		<stop  offset="0" style="stop-color:#B2802C"/>
		<stop  offset="5.434960e-02" style="stop-color:#B5852D"/>
		<stop  offset="0.1324" style="stop-color:#C09434"/>
		<stop  offset="0.2249" style="stop-color:#D2AF43"/>
		<stop  offset="0.3275" style="stop-color:#F2DA60"/>
		<stop  offset="0.3333" style="stop-color:#F4DD62"/>
		<stop  offset="0.5161" style="stop-color:#F4E38B"/>
		<stop  offset="0.6613" style="stop-color:#F4DD62"/>
		<stop  offset="1" style="stop-color:#B2802C"/>
	</linearGradient>
	<path id="XMLID_514_" class="st9" d="M1067.3,1352.1v16H1037v34.6h-20.4v-84.4h57.4v17.6h-37v16.2L1067.3,1352.1L1067.3,1352.1z"/>
	
		<linearGradient id="XMLID_14_" gradientUnits="userSpaceOnUse" x1="1117.15" y1="179.7327" x2="1117.15" y2="97.1582" gradientTransform="matrix(1 0 0 1 0 1208)">
		<stop  offset="0" style="stop-color:#B2802C"/>
		<stop  offset="5.434960e-02" style="stop-color:#B5852D"/>
		<stop  offset="0.1324" style="stop-color:#C09434"/>
		<stop  offset="0.2249" style="stop-color:#D2AF43"/>
		<stop  offset="0.3275" style="stop-color:#F2DA60"/>
		<stop  offset="0.3333" style="stop-color:#F4DD62"/>
		<stop  offset="0.5161" style="stop-color:#F4E38B"/>
		<stop  offset="0.6613" style="stop-color:#F4DD62"/>
		<stop  offset="1" style="stop-color:#B2802C"/>
	</linearGradient>
	<path id="XMLID_822_" class="st10" d="M1144.2,1402.7h-54.1v-84.4h20.4v66.8h33.7V1402.7z"/>
	
		<linearGradient id="XMLID_15_" gradientUnits="userSpaceOnUse" x1="1190.1001" y1="179.7327" x2="1190.1001" y2="97.1582" gradientTransform="matrix(1 0 0 1 0 1208)">
		<stop  offset="0" style="stop-color:#B2802C"/>
		<stop  offset="5.434960e-02" style="stop-color:#B5852D"/>
		<stop  offset="0.1324" style="stop-color:#C09434"/>
		<stop  offset="0.2249" style="stop-color:#D2AF43"/>
		<stop  offset="0.3275" style="stop-color:#F2DA60"/>
		<stop  offset="0.3333" style="stop-color:#F4DD62"/>
		<stop  offset="0.5161" style="stop-color:#F4E38B"/>
		<stop  offset="0.6613" style="stop-color:#F4DD62"/>
		<stop  offset="1" style="stop-color:#B2802C"/>
	</linearGradient>
	<path id="XMLID_824_" class="st11" d="M1189.9,1404.7c-10.4,0-18.8-3.6-25.2-10.9c-6.4-7.3-9.6-16.4-9.6-27.5v-47.9h20.4v47.9
		c0,5.5,1.2,10,3.7,13.4s6.1,5.1,10.8,5.1c4.9,0,8.5-1.7,11-5.1c2.4-3.4,3.7-7.9,3.7-13.5v-47.9h20.4v47.9c0,11.2-3.2,20.3-9.5,27.6
		C1209.1,1401,1200.6,1404.7,1189.9,1404.7z"/>
	
		<linearGradient id="XMLID_16_" gradientUnits="userSpaceOnUse" x1="1271.4" y1="179.7327" x2="1271.4" y2="97.1582" gradientTransform="matrix(1 0 0 1 0 1208)">
		<stop  offset="0" style="stop-color:#B2802C"/>
		<stop  offset="5.434960e-02" style="stop-color:#B5852D"/>
		<stop  offset="0.1324" style="stop-color:#C09434"/>
		<stop  offset="0.2249" style="stop-color:#D2AF43"/>
		<stop  offset="0.3275" style="stop-color:#F2DA60"/>
		<stop  offset="0.3333" style="stop-color:#F4DD62"/>
		<stop  offset="0.5161" style="stop-color:#F4E38B"/>
		<stop  offset="0.6613" style="stop-color:#F4DD62"/>
		<stop  offset="1" style="stop-color:#B2802C"/>
	</linearGradient>
	<path id="XMLID_826_" class="st12" d="M1293.8,1351.9v16h-30.4v17.2h36.4v17.6H1243v-84.4h56.8v17.6h-36.4v16L1293.8,1351.9
		L1293.8,1351.9z"/>
	
		<linearGradient id="XMLID_17_" gradientUnits="userSpaceOnUse" x1="1351.5" y1="179.7327" x2="1351.5" y2="97.1582" gradientTransform="matrix(1 0 0 1 0 1208)">
		<stop  offset="0" style="stop-color:#B2802C"/>
		<stop  offset="5.434960e-02" style="stop-color:#B5852D"/>
		<stop  offset="0.1324" style="stop-color:#C09434"/>
		<stop  offset="0.2249" style="stop-color:#D2AF43"/>
		<stop  offset="0.3275" style="stop-color:#F2DA60"/>
		<stop  offset="0.3333" style="stop-color:#F4DD62"/>
		<stop  offset="0.5161" style="stop-color:#F4E38B"/>
		<stop  offset="0.6613" style="stop-color:#F4DD62"/>
		<stop  offset="1" style="stop-color:#B2802C"/>
	</linearGradient>
	<path id="XMLID_828_" class="st13" d="M1387.2,1318.3v84.4h-15.9l-35.3-47v47h-20.2v-84.4h16.1l35,47.1v-47.1H1387.2z"/>
	
		<linearGradient id="XMLID_18_" gradientUnits="userSpaceOnUse" x1="1435.7499" y1="179.7327" x2="1435.7499" y2="97.1582" gradientTransform="matrix(1 0 0 1 0 1208)">
		<stop  offset="0" style="stop-color:#B2802C"/>
		<stop  offset="5.434960e-02" style="stop-color:#B5852D"/>
		<stop  offset="0.1324" style="stop-color:#C09434"/>
		<stop  offset="0.2249" style="stop-color:#D2AF43"/>
		<stop  offset="0.3275" style="stop-color:#F2DA60"/>
		<stop  offset="0.3333" style="stop-color:#F4DD62"/>
		<stop  offset="0.5161" style="stop-color:#F4E38B"/>
		<stop  offset="0.6613" style="stop-color:#F4DD62"/>
		<stop  offset="1" style="stop-color:#B2802C"/>
	</linearGradient>
	<path id="XMLID_830_" class="st14" d="M1457.5,1378.6l11.7,15.6c-0.2,0.3-0.5,0.7-1,1.1c-0.5,0.5-1.5,1.3-3.1,2.5s-3.4,2.3-5.3,3.2
		c-1.9,0.9-4.4,1.7-7.5,2.5c-3.1,0.7-6.4,1.1-9.8,1.1c-12.4,0-22.2-4.2-29.4-12.7c-7.2-8.4-10.8-18.9-10.8-31.5s3.6-23,10.8-31.4
		c7.2-8.4,17-12.6,29.4-12.6c5.4,0,10.4,0.9,14.8,2.6c4.5,1.7,7.5,3.4,9.2,5.1l2.7,2.5l-11.7,15.6c-0.4-0.5-0.9-1.1-1.6-1.8
		c-0.7-0.7-2.3-1.6-4.9-2.8c-2.5-1.2-5.3-1.8-8.3-1.8c-5.6,0-10.3,2.3-13.9,6.8c-3.7,4.5-5.5,10.4-5.5,17.6s1.8,13.1,5.5,17.6
		s8.3,6.8,13.9,6.8c3,0,5.7-0.5,8.2-1.5c2.4-1,4.2-2.1,5.2-3.2L1457.5,1378.6z"/>
	
		<linearGradient id="XMLID_19_" gradientUnits="userSpaceOnUse" x1="1509.7" y1="179.7327" x2="1509.7" y2="97.1582" gradientTransform="matrix(1 0 0 1 0 1208)">
		<stop  offset="0" style="stop-color:#B2802C"/>
		<stop  offset="5.434960e-02" style="stop-color:#B5852D"/>
		<stop  offset="0.1324" style="stop-color:#C09434"/>
		<stop  offset="0.2249" style="stop-color:#D2AF43"/>
		<stop  offset="0.3275" style="stop-color:#F2DA60"/>
		<stop  offset="0.3333" style="stop-color:#F4DD62"/>
		<stop  offset="0.5161" style="stop-color:#F4E38B"/>
		<stop  offset="0.6613" style="stop-color:#F4DD62"/>
		<stop  offset="1" style="stop-color:#B2802C"/>
	</linearGradient>
	<path id="XMLID_834_" class="st15" d="M1532.1,1351.9v16h-30.4v17.2h36.4v17.6h-56.8v-84.4h56.8v17.6h-36.4v16L1532.1,1351.9
		L1532.1,1351.9z"/>
	
		<linearGradient id="XMLID_20_" gradientUnits="userSpaceOnUse" x1="1631.4999" y1="179.7327" x2="1631.4999" y2="97.1582" gradientTransform="matrix(1 0 0 1 0 1208)">
		<stop  offset="0" style="stop-color:#B2802C"/>
		<stop  offset="5.434960e-02" style="stop-color:#B5852D"/>
		<stop  offset="0.1324" style="stop-color:#C09434"/>
		<stop  offset="0.2249" style="stop-color:#D2AF43"/>
		<stop  offset="0.3275" style="stop-color:#F2DA60"/>
		<stop  offset="0.3333" style="stop-color:#F4DD62"/>
		<stop  offset="0.5161" style="stop-color:#F4E38B"/>
		<stop  offset="0.6613" style="stop-color:#F4DD62"/>
		<stop  offset="1" style="stop-color:#B2802C"/>
	</linearGradient>
	<path id="XMLID_839_" class="st16" d="M1599.7,1393.3l11.1-15.6c0.8,0.6,2,1.3,3.5,2.2c1.5,0.9,4.1,2.2,7.9,3.7s7.1,2.2,10.1,2.2
		c4.6,0,6.9-2.3,6.9-7c0-2.2-0.8-4.1-2.4-5.5s-4.9-3-9.8-4.6c-8.5-2.8-14.9-6.2-19.2-10.1c-4.3-3.9-6.4-9.2-6.4-15.9
		c0-8,2.6-14.3,7.7-19s12.7-7.1,22.8-7.1c6.4,0,12,0.8,17,2.3s8.3,3,10.1,4.5l2.7,2.3l-11,16.6c-6.5-4.7-12.7-7-18.8-7
		c-4.6,0-6.9,2.1-6.9,6.2c0,2,0.8,3.6,2.4,4.8c1.6,1.2,4.5,2.5,8.6,3.9c9.1,3.1,15.9,6.6,20.5,10.6c4.5,4,6.8,9.3,6.8,16
		c0,8.2-2.6,14.9-7.7,20.1c-5.1,5.3-12.6,7.9-22.4,7.9c-6.5,0-12.5-0.9-18.1-2.8s-9.5-3.7-11.9-5.6L1599.7,1393.3z"/>
	
		<linearGradient id="XMLID_21_" gradientUnits="userSpaceOnUse" x1="1705" y1="179.7327" x2="1705" y2="97.1582" gradientTransform="matrix(1 0 0 1 0 1208)">
		<stop  offset="0" style="stop-color:#B2802C"/>
		<stop  offset="5.434960e-02" style="stop-color:#B5852D"/>
		<stop  offset="0.1324" style="stop-color:#C09434"/>
		<stop  offset="0.2249" style="stop-color:#D2AF43"/>
		<stop  offset="0.3275" style="stop-color:#F2DA60"/>
		<stop  offset="0.3333" style="stop-color:#F4DD62"/>
		<stop  offset="0.5161" style="stop-color:#F4E38B"/>
		<stop  offset="0.6613" style="stop-color:#F4DD62"/>
		<stop  offset="1" style="stop-color:#B2802C"/>
	</linearGradient>
	<path id="XMLID_841_" class="st17" d="M1673.6,1335.9v-17.6h62.8v17.6h-21.2v66.8h-20.4v-66.8H1673.6z"/>
	
		<linearGradient id="XMLID_22_" gradientUnits="userSpaceOnUse" x1="1785.0001" y1="179.7327" x2="1785.0001" y2="97.1582" gradientTransform="matrix(1 0 0 1 0 1208)">
		<stop  offset="0" style="stop-color:#B2802C"/>
		<stop  offset="5.434960e-02" style="stop-color:#B5852D"/>
		<stop  offset="0.1324" style="stop-color:#C09434"/>
		<stop  offset="0.2249" style="stop-color:#D2AF43"/>
		<stop  offset="0.3275" style="stop-color:#F2DA60"/>
		<stop  offset="0.3333" style="stop-color:#F4DD62"/>
		<stop  offset="0.5161" style="stop-color:#F4E38B"/>
		<stop  offset="0.6613" style="stop-color:#F4DD62"/>
		<stop  offset="1" style="stop-color:#B2802C"/>
	</linearGradient>
	<path id="XMLID_843_" class="st18" d="M1784.8,1404.7c-10.4,0-18.8-3.6-25.2-10.9c-6.4-7.3-9.6-16.4-9.6-27.5v-47.9h20.4v47.9
		c0,5.5,1.2,10,3.7,13.4s6.1,5.1,10.8,5.1c4.9,0,8.5-1.7,11-5.1c2.4-3.4,3.7-7.9,3.7-13.5v-47.9h20.4v47.9c0,11.2-3.2,20.3-9.5,27.6
		C1803.9,1401,1795.4,1404.7,1784.8,1404.7z"/>
	
		<linearGradient id="XMLID_23_" gradientUnits="userSpaceOnUse" x1="1873.75" y1="179.7327" x2="1873.75" y2="97.1582" gradientTransform="matrix(1 0 0 1 0 1208)">
		<stop  offset="0" style="stop-color:#B2802C"/>
		<stop  offset="5.434960e-02" style="stop-color:#B5852D"/>
		<stop  offset="0.1324" style="stop-color:#C09434"/>
		<stop  offset="0.2249" style="stop-color:#D2AF43"/>
		<stop  offset="0.3275" style="stop-color:#F2DA60"/>
		<stop  offset="0.3333" style="stop-color:#F4DD62"/>
		<stop  offset="0.5161" style="stop-color:#F4E38B"/>
		<stop  offset="0.6613" style="stop-color:#F4DD62"/>
		<stop  offset="1" style="stop-color:#B2802C"/>
	</linearGradient>
	<path id="XMLID_845_" class="st19" d="M1898.3,1330.2c7.5,7.9,11.2,18,11.2,30.3s-3.7,22.4-11.2,30.3s-17.4,11.9-29.7,11.9H1838
		v-84.4h30.6C1880.9,1318.3,1890.8,1322.3,1898.3,1330.2z M1866.9,1335.9h-8.6v49.2h8.6c6.1,0,11.2-2.2,15.3-6.7
		c4.1-4.5,6.2-10.4,6.2-17.9c0-7.9-2-13.9-6.1-18.2C1878.2,1338,1873,1335.9,1866.9,1335.9z"/>
	
		<linearGradient id="XMLID_24_" gradientUnits="userSpaceOnUse" x1="1934.7" y1="179.7327" x2="1934.7" y2="97.1582" gradientTransform="matrix(1 0 0 1 0 1208)">
		<stop  offset="0" style="stop-color:#B2802C"/>
		<stop  offset="5.434960e-02" style="stop-color:#B5852D"/>
		<stop  offset="0.1324" style="stop-color:#C09434"/>
		<stop  offset="0.2249" style="stop-color:#D2AF43"/>
		<stop  offset="0.3275" style="stop-color:#F2DA60"/>
		<stop  offset="0.3333" style="stop-color:#F4DD62"/>
		<stop  offset="0.5161" style="stop-color:#F4E38B"/>
		<stop  offset="0.6613" style="stop-color:#F4DD62"/>
		<stop  offset="1" style="stop-color:#B2802C"/>
	</linearGradient>
	<path id="XMLID_848_" class="st20" d="M1944.9,1318.3v84.4h-20.4v-84.4H1944.9z"/>
	
		<linearGradient id="XMLID_25_" gradientUnits="userSpaceOnUse" x1="1999.85" y1="179.7327" x2="1999.85" y2="97.1582" gradientTransform="matrix(1 0 0 1 0 1208)">
		<stop  offset="0" style="stop-color:#B2802C"/>
		<stop  offset="5.434960e-02" style="stop-color:#B5852D"/>
		<stop  offset="0.1324" style="stop-color:#C09434"/>
		<stop  offset="0.2249" style="stop-color:#D2AF43"/>
		<stop  offset="0.3275" style="stop-color:#F2DA60"/>
		<stop  offset="0.3333" style="stop-color:#F4DD62"/>
		<stop  offset="0.5161" style="stop-color:#F4E38B"/>
		<stop  offset="0.6613" style="stop-color:#F4DD62"/>
		<stop  offset="1" style="stop-color:#B2802C"/>
	</linearGradient>
	<path id="XMLID_850_" class="st21" d="M1999.7,1404.7c-11.5,0-21.1-4.3-28.6-12.9s-11.3-19-11.3-31.3s3.8-22.7,11.3-31.2
		s17.1-12.8,28.6-12.8c11.7,0,21.3,4.3,28.9,12.8c7.5,8.5,11.3,18.9,11.3,31.2c0,12.3-3.8,22.7-11.3,31.3
		S2011.4,1404.7,1999.7,1404.7z M1999.7,1384.8c5.3,0,9.9-2.3,13.6-6.8s5.6-10.4,5.6-17.5s-1.9-13-5.6-17.5s-8.2-6.8-13.6-6.8
		c-5.3,0-9.7,2.3-13.4,6.8c-3.7,4.5-5.5,10.4-5.5,17.5s1.8,13,5.5,17.5C1990,1382.6,1994.5,1384.8,1999.7,1384.8z"/>
	
		<linearGradient id="XMLID_26_" gradientUnits="userSpaceOnUse" x1="2081.7002" y1="179.7327" x2="2081.7002" y2="97.1582" gradientTransform="matrix(1 0 0 1 0 1208)">
		<stop  offset="0" style="stop-color:#B2802C"/>
		<stop  offset="5.434960e-02" style="stop-color:#B5852D"/>
		<stop  offset="0.1324" style="stop-color:#C09434"/>
		<stop  offset="0.2249" style="stop-color:#D2AF43"/>
		<stop  offset="0.3275" style="stop-color:#F2DA60"/>
		<stop  offset="0.3333" style="stop-color:#F4DD62"/>
		<stop  offset="0.5161" style="stop-color:#F4E38B"/>
		<stop  offset="0.6613" style="stop-color:#F4DD62"/>
		<stop  offset="1" style="stop-color:#B2802C"/>
	</linearGradient>
	<path id="XMLID_853_" class="st22" d="M2049.9,1393.3l11.1-15.6c0.8,0.6,2,1.3,3.5,2.2c1.5,0.9,4.1,2.2,7.9,3.7
		c3.8,1.5,7.1,2.2,10.1,2.2c4.6,0,6.9-2.3,6.9-7c0-2.2-0.8-4.1-2.4-5.5c-1.6-1.4-4.9-3-9.8-4.6c-8.5-2.8-14.9-6.2-19.2-10.1
		s-6.4-9.2-6.4-15.9c0-8,2.6-14.3,7.7-19c5.1-4.7,12.7-7.1,22.8-7.1c6.4,0,12,0.8,17,2.3s8.3,3,10.1,4.5l2.7,2.3l-11,16.6
		c-6.5-4.7-12.7-7-18.8-7c-4.6,0-6.9,2.1-6.9,6.2c0,2,0.8,3.6,2.4,4.8c1.6,1.2,4.5,2.5,8.6,3.9c9.1,3.1,15.9,6.6,20.5,10.6
		c4.5,4,6.8,9.3,6.8,16c0,8.2-2.6,14.9-7.7,20.1c-5.1,5.3-12.6,7.9-22.4,7.9c-6.5,0-12.5-0.9-18.1-2.8s-9.5-3.7-11.9-5.6
		L2049.9,1393.3z"/>
</g>
<linearGradient id="XMLID_28_" gradientUnits="userSpaceOnUse" x1="1529.2465" y1="-555.211" x2="1437.3434" y2="-592.3423" gradientTransform="matrix(1 0 0 1 0 1208)">
	<stop  offset="8.225860e-03" style="stop-color:#A47727"/>
	<stop  offset="0.1565" style="stop-color:#BC8B2F"/>
	<stop  offset="0.2111" style="stop-color:#C09434"/>
	<stop  offset="0.2909" style="stop-color:#E1B335"/>
	<stop  offset="0.5115" style="stop-color:#F5D772"/>
	<stop  offset="0.7157" style="stop-color:#CA9E35"/>
	<stop  offset="0.9569" style="stop-color:#9A7024"/>
</linearGradient>
<linearGradient id="XMLID_29_" gradientUnits="userSpaceOnUse" x1="1434.5175" y1="-569.8889" x2="1551.3175" y2="-569.8889" gradientTransform="matrix(1 0 0 1 0 1208)">
	<stop  offset="0" style="stop-color:#B2802C"/>
	<stop  offset="5.434960e-02" style="stop-color:#B5852D"/>
	<stop  offset="0.1324" style="stop-color:#C09434"/>
	<stop  offset="0.2249" style="stop-color:#D2AF43"/>
	<stop  offset="0.3275" style="stop-color:#F2DA60"/>
	<stop  offset="0.3333" style="stop-color:#F4DD62"/>
	<stop  offset="0.5161" style="stop-color:#F4E38B"/>
	<stop  offset="0.6613" style="stop-color:#F4DD62"/>
	<stop  offset="1" style="stop-color:#B2802C"/>
</linearGradient>
<circle id="XMLID_6_" class="st23" cx="1492.9" cy="638.1" r="54.9"/>
<g>
	<g>
		<path class="st24" d="M796.5,1419.1v-122.8h26v122.8H796.5z"/>
		<path class="st24" d="M904.4,1350.1h48.7v63.7c-7.9,2.6-15.3,4.4-22.3,5.4s-14.1,1.6-21.4,1.6c-18.5,0-32.7-5.4-42.5-16.3
			s-14.7-26.5-14.7-46.9c0-19.8,5.7-35.3,17-46.4s27.1-16.6,47.2-16.6c12.6,0,24.7,2.5,36.4,7.6l-8.7,20.8c-9-4.5-18.3-6.7-28-6.7
			c-11.3,0-20.3,3.8-27,11.3c-6.8,7.6-10.2,17.7-10.2,30.5c0,13.3,2.7,23.5,8.2,30.5s13.4,10.5,23.8,10.5c5.4,0,10.9-0.6,16.5-1.7
			v-25.6h-23.3v-21.7H904.4z"/>
		<path class="st24" d="M1095.6,1419.1h-33.1l-53.4-92.9h-0.8c1.1,16.4,1.6,28.1,1.6,35.1v57.8h-23.3v-122.8h32.8l53.3,92h0.6
			c-0.8-16-1.3-27.2-1.3-33.8v-58.1h23.4v122.7H1095.6z"/>
		<path class="st24" d="M1130.8,1419.1v-122.8h26v122.8H1130.8z"/>
		<path class="st24" d="M1239.4,1419.1h-26V1318H1180v-21.7h92.7v21.7h-33.3L1239.4,1419.1L1239.4,1419.1z"/>
		<path class="st24" d="M1366.6,1419.1h-70.7v-122.8h70.7v21.3H1322v27h41.6v21.3H1322v31.7h44.7L1366.6,1419.1L1366.6,1419.1z"/>
		<path class="st24" d="M1518,1385c0,11.1-4,19.8-12,26.2s-19.1,9.6-33.3,9.6c-13.1,0-24.7-2.5-34.8-7.4v-24.2
			c8.3,3.7,15.3,6.3,21,7.8s11,2.3,15.7,2.3c5.7,0,10.1-1.1,13.1-3.3c3.1-2.2,4.6-5.4,4.6-9.7c0-2.4-0.7-4.5-2-6.4s-3.3-3.7-5.9-5.4
			c-2.6-1.7-7.9-4.5-15.9-8.3c-7.5-3.5-13.1-6.9-16.9-10.2c-3.8-3.2-6.7-7-9-11.3c-2.2-4.3-3.4-9.3-3.4-15.1
			c0-10.9,3.7-19.4,11-25.6c7.4-6.2,17.5-9.3,30.5-9.3c6.4,0,12.5,0.8,18.3,2.3s11.9,3.6,18.2,6.4l-8.4,20.2
			c-6.6-2.7-12-4.6-16.3-5.6c-4.3-1.1-8.5-1.6-12.6-1.6c-4.9,0-8.7,1.1-11.3,3.4c-2.6,2.3-3.9,5.3-3.9,9c0,2.3,0.5,4.3,1.6,6
			s2.8,3.4,5.1,5c2.3,1.6,7.8,4.5,16.5,8.6c11.5,5.5,19.3,11,23.6,16.5C1515.9,1370.2,1518,1377,1518,1385z"/>
		<path class="st24" d="M1591.9,1419.1h-26V1318h-33.3v-21.7h92.7v21.7H1592L1591.9,1419.1L1591.9,1419.1z"/>
		<path class="st24" d="M1748.4,1296.3v79.4c0,9.1-2,17-6.1,23.9c-4.1,6.8-9.9,12.1-17.6,15.7s-16.7,5.5-27.2,5.5
			c-15.8,0-28.1-4-36.8-12.1c-8.7-8.1-13.1-19.2-13.1-33.2v-79.1h26v75.2c0,9.5,1.9,16.4,5.7,20.8c3.8,4.4,10.1,6.6,18.9,6.6
			c8.5,0,14.7-2.2,18.5-6.7s5.8-11.4,5.8-21v-75L1748.4,1296.3L1748.4,1296.3z"/>
		<path class="st24" d="M1884.6,1356.5c0,20.2-5.8,35.7-17.3,46.4s-28.1,16.1-49.8,16.1h-34.8v-122.8h38.5c20,0,35.6,5.3,46.7,15.9
			S1884.6,1337.5,1884.6,1356.5z M1857.6,1357.2c0-26.4-11.6-39.6-34.9-39.6h-13.9v80h11.2
			C1845.1,1397.6,1857.6,1384.1,1857.6,1357.2z"/>
		<path class="st24" d="M1914.4,1419.1v-122.8h26v122.8H1914.4z"/>
		<path class="st24" d="M2087.1,1357.5c0,20.3-5,35.9-15.1,46.9s-24.5,16.4-43.3,16.4s-33.3-5.5-43.3-16.4s-15.1-26.6-15.1-47
			s5.1-36,15.2-46.8s24.6-16.2,43.5-16.2s33.3,5.4,43.3,16.3C2082.1,1321.5,2087.1,1337.1,2087.1,1357.5z M1997.5,1357.5
			c0,13.7,2.6,24,7.8,31c5.2,6.9,13,10.4,23.3,10.4c20.8,0,31.2-13.8,31.2-41.4c0-27.7-10.3-41.5-31-41.5
			c-10.4,0-18.2,3.5-23.4,10.5C2000.1,1333.4,1997.5,1343.8,1997.5,1357.5z"/>
		<path class="st24" d="M2189.3,1385c0,11.1-4,19.8-12,26.2s-19.1,9.6-33.3,9.6c-13.1,0-24.7-2.5-34.8-7.4v-24.2
			c8.3,3.7,15.3,6.3,21,7.8s11,2.3,15.7,2.3c5.7,0,10.1-1.1,13.1-3.3c3.1-2.2,4.6-5.4,4.6-9.7c0-2.4-0.7-4.5-2-6.4s-3.3-3.7-5.9-5.4
			c-2.6-1.7-7.9-4.5-15.9-8.3c-7.5-3.5-13.1-6.9-16.9-10.2c-3.8-3.2-6.7-7-9-11.3c-2.2-4.3-3.4-9.3-3.4-15.1
			c0-10.9,3.7-19.4,11-25.6c7.4-6.2,17.5-9.3,30.5-9.3c6.4,0,12.5,0.8,18.3,2.3s11.9,3.6,18.2,6.4l-8.4,20.2
			c-6.6-2.7-12-4.6-16.3-5.6c-4.3-1.1-8.5-1.6-12.6-1.6c-4.9,0-8.7,1.1-11.3,3.4s-3.9,5.3-3.9,9c0,2.3,0.5,4.3,1.6,6s2.8,3.4,5.1,5
			s7.8,4.5,16.5,8.6c11.5,5.5,19.3,11,23.6,16.5C2187.2,1370.2,2189.3,1377,2189.3,1385z"/>
	</g>
	<g>
		<path class="st24" d="M796.5,1419.1v-122.8h26v122.8H796.5z"/>
		<path class="st24" d="M904.4,1350.1h48.7v63.7c-7.9,2.6-15.3,4.4-22.3,5.4s-14.1,1.6-21.4,1.6c-18.5,0-32.7-5.4-42.5-16.3
			s-14.7-26.5-14.7-46.9c0-19.8,5.7-35.3,17-46.4s27.1-16.6,47.2-16.6c12.6,0,24.7,2.5,36.4,7.6l-8.7,20.8c-9-4.5-18.3-6.7-28-6.7
			c-11.3,0-20.3,3.8-27,11.3c-6.8,7.6-10.2,17.7-10.2,30.5c0,13.3,2.7,23.5,8.2,30.5s13.4,10.5,23.8,10.5c5.4,0,10.9-0.6,16.5-1.7
			v-25.6h-23.3v-21.7H904.4z"/>
		<path class="st24" d="M1095.6,1419.1h-33.1l-53.4-92.9h-0.8c1.1,16.4,1.6,28.1,1.6,35.1v57.8h-23.3v-122.8h32.8l53.3,92h0.6
			c-0.8-16-1.3-27.2-1.3-33.8v-58.1h23.4v122.7H1095.6z"/>
		<path class="st24" d="M1130.8,1419.1v-122.8h26v122.8H1130.8z"/>
		<path class="st24" d="M1239.4,1419.1h-26V1318H1180v-21.7h92.7v21.7h-33.3L1239.4,1419.1L1239.4,1419.1z"/>
		<path class="st24" d="M1366.6,1419.1h-70.7v-122.8h70.7v21.3H1322v27h41.6v21.3H1322v31.7h44.7L1366.6,1419.1L1366.6,1419.1z"/>
		<path class="st24" d="M1518,1385c0,11.1-4,19.8-12,26.2s-19.1,9.6-33.3,9.6c-13.1,0-24.7-2.5-34.8-7.4v-24.2
			c8.3,3.7,15.3,6.3,21,7.8s11,2.3,15.7,2.3c5.7,0,10.1-1.1,13.1-3.3c3.1-2.2,4.6-5.4,4.6-9.7c0-2.4-0.7-4.5-2-6.4s-3.3-3.7-5.9-5.4
			c-2.6-1.7-7.9-4.5-15.9-8.3c-7.5-3.5-13.1-6.9-16.9-10.2c-3.8-3.2-6.7-7-9-11.3c-2.2-4.3-3.4-9.3-3.4-15.1
			c0-10.9,3.7-19.4,11-25.6c7.4-6.2,17.5-9.3,30.5-9.3c6.4,0,12.5,0.8,18.3,2.3s11.9,3.6,18.2,6.4l-8.4,20.2
			c-6.6-2.7-12-4.6-16.3-5.6c-4.3-1.1-8.5-1.6-12.6-1.6c-4.9,0-8.7,1.1-11.3,3.4c-2.6,2.3-3.9,5.3-3.9,9c0,2.3,0.5,4.3,1.6,6
			s2.8,3.4,5.1,5c2.3,1.6,7.8,4.5,16.5,8.6c11.5,5.5,19.3,11,23.6,16.5C1515.9,1370.2,1518,1377,1518,1385z"/>
		<path class="st24" d="M1591.9,1419.1h-26V1318h-33.3v-21.7h92.7v21.7H1592L1591.9,1419.1L1591.9,1419.1z"/>
		<path class="st24" d="M1748.4,1296.3v79.4c0,9.1-2,17-6.1,23.9c-4.1,6.8-9.9,12.1-17.6,15.7s-16.7,5.5-27.2,5.5
			c-15.8,0-28.1-4-36.8-12.1c-8.7-8.1-13.1-19.2-13.1-33.2v-79.1h26v75.2c0,9.5,1.9,16.4,5.7,20.8c3.8,4.4,10.1,6.6,18.9,6.6
			c8.5,0,14.7-2.2,18.5-6.7s5.8-11.4,5.8-21v-75L1748.4,1296.3L1748.4,1296.3z"/>
		<path class="st24" d="M1884.6,1356.5c0,20.2-5.8,35.7-17.3,46.4s-28.1,16.1-49.8,16.1h-34.8v-122.8h38.5c20,0,35.6,5.3,46.7,15.9
			S1884.6,1337.5,1884.6,1356.5z M1857.6,1357.2c0-26.4-11.6-39.6-34.9-39.6h-13.9v80h11.2
			C1845.1,1397.6,1857.6,1384.1,1857.6,1357.2z"/>
		<path class="st24" d="M1914.4,1419.1v-122.8h26v122.8H1914.4z"/>
		<path class="st24" d="M2087.1,1357.5c0,20.3-5,35.9-15.1,46.9s-24.5,16.4-43.3,16.4s-33.3-5.5-43.3-16.4s-15.1-26.6-15.1-47
			s5.1-36,15.2-46.8s24.6-16.2,43.5-16.2s33.3,5.4,43.3,16.3C2082.1,1321.5,2087.1,1337.1,2087.1,1357.5z M1997.5,1357.5
			c0,13.7,2.6,24,7.8,31c5.2,6.9,13,10.4,23.3,10.4c20.8,0,31.2-13.8,31.2-41.4c0-27.7-10.3-41.5-31-41.5
			c-10.4,0-18.2,3.5-23.4,10.5C2000.1,1333.4,1997.5,1343.8,1997.5,1357.5z"/>
		<path class="st24" d="M2189.3,1385c0,11.1-4,19.8-12,26.2s-19.1,9.6-33.3,9.6c-13.1,0-24.7-2.5-34.8-7.4v-24.2
			c8.3,3.7,15.3,6.3,21,7.8s11,2.3,15.7,2.3c5.7,0,10.1-1.1,13.1-3.3c3.1-2.2,4.6-5.4,4.6-9.7c0-2.4-0.7-4.5-2-6.4s-3.3-3.7-5.9-5.4
			c-2.6-1.7-7.9-4.5-15.9-8.3c-7.5-3.5-13.1-6.9-16.9-10.2c-3.8-3.2-6.7-7-9-11.3c-2.2-4.3-3.4-9.3-3.4-15.1
			c0-10.9,3.7-19.4,11-25.6c7.4-6.2,17.5-9.3,30.5-9.3c6.4,0,12.5,0.8,18.3,2.3s11.9,3.6,18.2,6.4l-8.4,20.2
			c-6.6-2.7-12-4.6-16.3-5.6c-4.3-1.1-8.5-1.6-12.6-1.6c-4.9,0-8.7,1.1-11.3,3.4s-3.9,5.3-3.9,9c0,2.3,0.5,4.3,1.6,6s2.8,3.4,5.1,5
			s7.8,4.5,16.5,8.6c11.5,5.5,19.3,11,23.6,16.5C2187.2,1370.2,2189.3,1377,2189.3,1385z"/>
	</g>
</g>
<g class="st2">
	<rect x="3757.4" y="1243.3" class="st25" width="1430.4" height="210.9"/>
	<text transform="matrix(1 0 0 1 3765.0903 1374.0665)" class="st3 st27 st28 st6">IGNITE STUDIOS</text>
	
		<text transform="matrix(1 0 0 1 3765.0903 1374.0665)" class="st27 st28 st6" style="display:inline;fill:none;stroke:#000000;stroke-width:10;stroke-miterlimit:10;">IGNITE STUDIOS</text>
</g>
<g>
	<g>
		<path class="st26" d="M3748.8,1420.1v-122.8h26v122.8H3748.8z"/>
		<path class="st26" d="M3856.7,1351.1h48.7v63.7c-7.9,2.6-15.3,4.4-22.3,5.4s-14.1,1.6-21.4,1.6c-18.5,0-32.7-5.4-42.5-16.3
			c-9.8-10.9-14.7-26.5-14.7-46.9c0-19.8,5.7-35.3,17-46.4c11.3-11.1,27.1-16.6,47.2-16.6c12.6,0,24.7,2.5,36.4,7.6l-8.7,20.8
			c-9-4.5-18.3-6.7-28-6.7c-11.3,0-20.3,3.8-27,11.3c-6.8,7.6-10.2,17.7-10.2,30.5c0,13.3,2.7,23.5,8.2,30.5s13.4,10.5,23.8,10.5
			c5.4,0,10.9-0.6,16.5-1.7v-25.6h-23.3v-21.7H3856.7z"/>
		<path class="st26" d="M4047.9,1420.1h-33.1l-53.4-92.9h-0.8c1.1,16.4,1.6,28.1,1.6,35.1v57.8h-23.3v-122.8h32.8l53.3,92h0.6
			c-0.8-16-1.3-27.2-1.3-33.8v-58.1h23.4v122.7H4047.9z"/>
		<path class="st26" d="M4083.1,1420.1v-122.8h26v122.8H4083.1z"/>
		<path class="st26" d="M4191.7,1420.1h-26v-101.1h-33.4v-21.7h92.7v21.7h-33.3L4191.7,1420.1L4191.7,1420.1z"/>
		<path class="st26" d="M4318.9,1420.1h-70.7v-122.8h70.7v21.3h-44.6v27h41.6v21.3h-41.6v31.7h44.7v21.5H4318.9z"/>
		<path class="st26" d="M4470.3,1385.9c0,11.1-4,19.8-12,26.2s-19.1,9.6-33.3,9.6c-13.1,0-24.7-2.5-34.8-7.4v-24.2
			c8.3,3.7,15.3,6.3,21,7.8s11,2.3,15.7,2.3c5.7,0,10.1-1.1,13.1-3.3c3.1-2.2,4.6-5.4,4.6-9.7c0-2.4-0.7-4.5-2-6.4
			c-1.3-1.9-3.3-3.7-5.9-5.4c-2.6-1.7-7.9-4.5-15.9-8.3c-7.5-3.5-13.1-6.9-16.9-10.2c-3.8-3.2-6.7-7-9-11.3
			c-2.2-4.3-3.4-9.3-3.4-15.1c0-10.9,3.7-19.4,11-25.6c7.4-6.2,17.5-9.3,30.5-9.3c6.4,0,12.5,0.8,18.3,2.3s11.9,3.6,18.2,6.4
			l-8.4,20.2c-6.6-2.7-12-4.6-16.3-5.6c-4.3-1.1-8.5-1.6-12.6-1.6c-4.9,0-8.7,1.1-11.3,3.4c-2.6,2.3-3.9,5.3-3.9,9
			c0,2.3,0.5,4.3,1.6,6s2.8,3.4,5.1,5c2.3,1.6,7.8,4.5,16.5,8.6c11.5,5.5,19.3,11,23.6,16.5
			C4468.2,1371.1,4470.3,1377.9,4470.3,1385.9z"/>
		<path class="st26" d="M4544.2,1420.1h-26v-101.1h-33.3v-21.7h92.7v21.7h-33.3v101.1H4544.2z"/>
		<path class="st26" d="M4700.7,1297.2v79.4c0,9.1-2,17-6.1,23.9c-4.1,6.8-9.9,12.1-17.6,15.7c-7.7,3.6-16.7,5.5-27.2,5.5
			c-15.8,0-28.1-4-36.8-12.1c-8.7-8.1-13.1-19.2-13.1-33.2v-79.1h26v75.2c0,9.5,1.9,16.4,5.7,20.8c3.8,4.4,10.1,6.6,18.9,6.6
			c8.5,0,14.7-2.2,18.5-6.7s5.8-11.4,5.8-21v-75L4700.7,1297.2L4700.7,1297.2z"/>
		<path class="st26" d="M4836.9,1357.4c0,20.2-5.8,35.7-17.3,46.4c-11.5,10.7-28.1,16.1-49.8,16.1H4735v-122.8h38.5
			c20,0,35.6,5.3,46.7,15.9C4831.3,1323.6,4836.9,1338.4,4836.9,1357.4z M4809.9,1358.1c0-26.4-11.6-39.6-34.9-39.6h-13.9v80h11.2
			C4797.4,1398.6,4809.9,1385.1,4809.9,1358.1z"/>
		<path class="st26" d="M4866.7,1420.1v-122.8h26v122.8H4866.7z"/>
		<path class="st26" d="M5039.4,1358.4c0,20.3-5,35.9-15.1,46.9s-24.5,16.4-43.3,16.4s-33.3-5.5-43.3-16.4
			c-10-10.9-15.1-26.6-15.1-47c0-20.4,5.1-36,15.2-46.8s24.6-16.2,43.5-16.2s33.3,5.4,43.3,16.3
			C5034.4,1322.4,5039.4,1338.1,5039.4,1358.4z M4949.8,1358.4c0,13.7,2.6,24,7.8,31c5.2,6.9,13,10.4,23.3,10.4
			c20.8,0,31.2-13.8,31.2-41.4c0-27.7-10.3-41.5-31-41.5c-10.4,0-18.2,3.5-23.4,10.5C4952.4,1334.4,4949.8,1344.8,4949.8,1358.4z"/>
		<path class="st26" d="M5141.6,1385.9c0,11.1-4,19.8-12,26.2s-19.1,9.6-33.3,9.6c-13.1,0-24.7-2.5-34.8-7.4v-24.2
			c8.3,3.7,15.3,6.3,21,7.8s11,2.3,15.7,2.3c5.7,0,10.1-1.1,13.1-3.3c3.1-2.2,4.6-5.4,4.6-9.7c0-2.4-0.7-4.5-2-6.4
			c-1.3-1.9-3.3-3.7-5.9-5.4c-2.6-1.7-7.9-4.5-15.9-8.3c-7.5-3.5-13.1-6.9-16.9-10.2c-3.8-3.2-6.7-7-9-11.3
			c-2.2-4.3-3.4-9.3-3.4-15.1c0-10.9,3.7-19.4,11-25.6c7.4-6.2,17.5-9.3,30.5-9.3c6.4,0,12.5,0.8,18.3,2.3s11.9,3.6,18.2,6.4
			l-8.4,20.2c-6.6-2.7-12-4.6-16.3-5.6c-4.3-1.1-8.5-1.6-12.6-1.6c-4.9,0-8.7,1.1-11.3,3.4c-2.6,2.3-3.9,5.3-3.9,9
			c0,2.3,0.5,4.3,1.6,6s2.8,3.4,5.1,5c2.3,1.6,7.8,4.5,16.5,8.6c11.5,5.5,19.3,11,23.6,16.5
			C5139.5,1371.1,5141.6,1377.9,5141.6,1385.9z"/>
	</g>
</g>
<g class="st2">
	<rect x="757.4" y="1288.3" class="st25" width="1430.4" height="210.9"/>
	<text transform="matrix(1 0 0 1 765.0905 1419.0665)" class="st3 st27 st28 st6">IGNITE STUDIOS</text>
	<text transform="matrix(1 0 0 1 765.0905 1419.0665)" class="st29 st27 st28 st6">IGNITE STUDIOS</text>
	<g class="st3">
		
			<linearGradient id="SVGID_1_" gradientUnits="userSpaceOnUse" x1="793.5" y1="705.6504" x2="793.5" y2="579.2539" gradientTransform="matrix(1 0 0 -1 0 2000)">
			<stop  offset="0" style="stop-color:#BC8F31"/>
			<stop  offset="0.2598" style="stop-color:#DFC04F"/>
			<stop  offset="0.4832" style="stop-color:#F4E180"/>
			<stop  offset="0.7179" style="stop-color:#EFD65E"/>
			<stop  offset="1" style="stop-color:#C3983A"/>
		</linearGradient>
		<path class="st30" d="M780.5,1419.1v-122.8h26v122.8H780.5z"/>
		
			<linearGradient id="SVGID_2_" gradientUnits="userSpaceOnUse" x1="886.65" y1="705.6504" x2="886.65" y2="579.2539" gradientTransform="matrix(1 0 0 -1 0 2000)">
			<stop  offset="0" style="stop-color:#BC8F31"/>
			<stop  offset="0.2598" style="stop-color:#DFC04F"/>
			<stop  offset="0.4832" style="stop-color:#F4E180"/>
			<stop  offset="0.7179" style="stop-color:#EFD65E"/>
			<stop  offset="1" style="stop-color:#C3983A"/>
		</linearGradient>
		<path class="st31" d="M888.4,1350.1h48.7v63.7c-7.9,2.6-15.3,4.4-22.3,5.4s-14.1,1.6-21.4,1.6c-18.5,0-32.7-5.4-42.5-16.3
			s-14.7-26.5-14.7-46.9c0-19.8,5.7-35.3,17-46.4s27.1-16.6,47.2-16.6c12.6,0,24.7,2.5,36.4,7.6l-8.7,20.8c-9-4.5-18.3-6.7-28-6.7
			c-11.3,0-20.3,3.8-27,11.3c-6.8,7.6-10.2,17.7-10.2,30.5c0,13.3,2.7,23.5,8.2,30.5s13.4,10.5,23.8,10.5c5.4,0,10.9-0.6,16.5-1.7
			v-25.6h-23.3v-21.7H888.4z"/>
		
			<linearGradient id="SVGID_3_" gradientUnits="userSpaceOnUse" x1="1025.1" y1="705.6504" x2="1025.1" y2="579.2539" gradientTransform="matrix(1 0 0 -1 0 2000)">
			<stop  offset="0" style="stop-color:#BC8F31"/>
			<stop  offset="0.2598" style="stop-color:#DFC04F"/>
			<stop  offset="0.4832" style="stop-color:#F4E180"/>
			<stop  offset="0.7179" style="stop-color:#EFD65E"/>
			<stop  offset="1" style="stop-color:#C3983A"/>
		</linearGradient>
		<path class="st32" d="M1079.6,1419.1h-33.1l-53.4-92.9h-0.8c1.1,16.4,1.6,28.1,1.6,35.1v57.8h-23.3v-122.8h32.8l53.3,92h0.6
			c-0.8-16-1.3-27.2-1.3-33.8v-58.1h23.4v122.7H1079.6z"/>
		
			<linearGradient id="SVGID_4_" gradientUnits="userSpaceOnUse" x1="1127.8" y1="705.6504" x2="1127.8" y2="579.2539" gradientTransform="matrix(1 0 0 -1 0 2000)">
			<stop  offset="0" style="stop-color:#BC8F31"/>
			<stop  offset="0.2598" style="stop-color:#DFC04F"/>
			<stop  offset="0.4832" style="stop-color:#F4E180"/>
			<stop  offset="0.7179" style="stop-color:#EFD65E"/>
			<stop  offset="1" style="stop-color:#C3983A"/>
		</linearGradient>
		<path class="st33" d="M1114.8,1419.1v-122.8h26v122.8H1114.8z"/>
		
			<linearGradient id="SVGID_5_" gradientUnits="userSpaceOnUse" x1="1210.35" y1="705.6504" x2="1210.35" y2="579.2539" gradientTransform="matrix(1 0 0 -1 0 2000)">
			<stop  offset="0" style="stop-color:#BC8F31"/>
			<stop  offset="0.2598" style="stop-color:#DFC04F"/>
			<stop  offset="0.4832" style="stop-color:#F4E180"/>
			<stop  offset="0.7179" style="stop-color:#EFD65E"/>
			<stop  offset="1" style="stop-color:#C3983A"/>
		</linearGradient>
		<path class="st34" d="M1223.4,1419.1h-26V1318H1164v-21.7h92.7v21.7h-33.3L1223.4,1419.1L1223.4,1419.1z"/>
		
			<linearGradient id="SVGID_6_" gradientUnits="userSpaceOnUse" x1="1315.2999" y1="705.6504" x2="1315.2999" y2="579.2539" gradientTransform="matrix(1 0 0 -1 0 2000)">
			<stop  offset="0" style="stop-color:#BC8F31"/>
			<stop  offset="0.2598" style="stop-color:#DFC04F"/>
			<stop  offset="0.4832" style="stop-color:#F4E180"/>
			<stop  offset="0.7179" style="stop-color:#EFD65E"/>
			<stop  offset="1" style="stop-color:#C3983A"/>
		</linearGradient>
		<path class="st35" d="M1350.6,1419.1h-70.7v-122.8h70.7v21.3H1306v27h41.6v21.3H1306v31.7h44.7L1350.6,1419.1L1350.6,1419.1z"/>
		
			<linearGradient id="SVGID_7_" gradientUnits="userSpaceOnUse" x1="1461.95" y1="705.6504" x2="1461.95" y2="579.2539" gradientTransform="matrix(1 0 0 -1 0 2000)">
			<stop  offset="0" style="stop-color:#BC8F31"/>
			<stop  offset="0.2598" style="stop-color:#DFC04F"/>
			<stop  offset="0.4832" style="stop-color:#F4E180"/>
			<stop  offset="0.7179" style="stop-color:#EFD65E"/>
			<stop  offset="1" style="stop-color:#C3983A"/>
		</linearGradient>
		<path class="st36" d="M1502,1385c0,11.1-4,19.8-12,26.2s-19.1,9.6-33.3,9.6c-13.1,0-24.7-2.5-34.8-7.4v-24.2
			c8.3,3.7,15.3,6.3,21,7.8s11,2.3,15.7,2.3c5.7,0,10.1-1.1,13.1-3.3c3.1-2.2,4.6-5.4,4.6-9.7c0-2.4-0.7-4.5-2-6.4s-3.3-3.7-5.9-5.4
			c-2.6-1.7-7.9-4.5-15.9-8.3c-7.5-3.5-13.1-6.9-16.9-10.2c-3.8-3.2-6.7-7-9-11.3c-2.2-4.3-3.4-9.3-3.4-15.1
			c0-10.9,3.7-19.4,11-25.6c7.4-6.2,17.5-9.3,30.5-9.3c6.4,0,12.5,0.8,18.3,2.3s11.9,3.6,18.2,6.4l-8.4,20.2
			c-6.6-2.7-12-4.6-16.3-5.6c-4.3-1.1-8.5-1.6-12.6-1.6c-4.9,0-8.7,1.1-11.3,3.4c-2.6,2.3-3.9,5.3-3.9,9c0,2.3,0.5,4.3,1.6,6
			s2.8,3.4,5.1,5c2.3,1.6,7.8,4.5,16.5,8.6c11.5,5.5,19.3,11,23.6,16.5C1499.9,1370.2,1502,1377,1502,1385z"/>
		
			<linearGradient id="SVGID_8_" gradientUnits="userSpaceOnUse" x1="1562.95" y1="705.6504" x2="1562.95" y2="579.2539" gradientTransform="matrix(1 0 0 -1 0 2000)">
			<stop  offset="0" style="stop-color:#BC8F31"/>
			<stop  offset="0.2598" style="stop-color:#DFC04F"/>
			<stop  offset="0.4832" style="stop-color:#F4E180"/>
			<stop  offset="0.7179" style="stop-color:#EFD65E"/>
			<stop  offset="1" style="stop-color:#C3983A"/>
		</linearGradient>
		<path class="st37" d="M1575.9,1419.1h-26V1318h-33.3v-21.7h92.7v21.7H1576L1575.9,1419.1L1575.9,1419.1z"/>
		
			<linearGradient id="SVGID_9_" gradientUnits="userSpaceOnUse" x1="1682.0001" y1="705.6504" x2="1682.0001" y2="579.2539" gradientTransform="matrix(1 0 0 -1 0 2000)">
			<stop  offset="0" style="stop-color:#BC8F31"/>
			<stop  offset="0.2598" style="stop-color:#DFC04F"/>
			<stop  offset="0.4832" style="stop-color:#F4E180"/>
			<stop  offset="0.7179" style="stop-color:#EFD65E"/>
			<stop  offset="1" style="stop-color:#C3983A"/>
		</linearGradient>
		<path class="st38" d="M1732.4,1296.3v79.4c0,9.1-2,17-6.1,23.9c-4.1,6.8-9.9,12.1-17.6,15.7s-16.7,5.5-27.2,5.5
			c-15.8,0-28.1-4-36.8-12.1c-8.7-8.1-13.1-19.2-13.1-33.2v-79.1h26v75.2c0,9.5,1.9,16.4,5.7,20.8c3.8,4.4,10.1,6.6,18.9,6.6
			c8.5,0,14.7-2.2,18.5-6.7s5.8-11.4,5.8-21v-75L1732.4,1296.3L1732.4,1296.3z"/>
		
			<linearGradient id="SVGID_10_" gradientUnits="userSpaceOnUse" x1="1817.6499" y1="705.6504" x2="1817.6499" y2="579.2539" gradientTransform="matrix(1 0 0 -1 0 2000)">
			<stop  offset="0" style="stop-color:#BC8F31"/>
			<stop  offset="0.2598" style="stop-color:#DFC04F"/>
			<stop  offset="0.4832" style="stop-color:#F4E180"/>
			<stop  offset="0.7179" style="stop-color:#EFD65E"/>
			<stop  offset="1" style="stop-color:#C3983A"/>
		</linearGradient>
		<path class="st39" d="M1868.6,1356.5c0,20.2-5.8,35.7-17.3,46.4s-28.1,16.1-49.8,16.1h-34.8v-122.8h38.5c20,0,35.6,5.3,46.7,15.9
			S1868.6,1337.5,1868.6,1356.5z M1841.6,1357.2c0-26.4-11.6-39.6-34.9-39.6h-13.9v80h11.2
			C1829.1,1397.6,1841.6,1384.1,1841.6,1357.2z"/>
		
			<linearGradient id="SVGID_11_" gradientUnits="userSpaceOnUse" x1="1911.4" y1="705.6504" x2="1911.4" y2="579.2539" gradientTransform="matrix(1 0 0 -1 0 2000)">
			<stop  offset="0" style="stop-color:#BC8F31"/>
			<stop  offset="0.2598" style="stop-color:#DFC04F"/>
			<stop  offset="0.4832" style="stop-color:#F4E180"/>
			<stop  offset="0.7179" style="stop-color:#EFD65E"/>
			<stop  offset="1" style="stop-color:#C3983A"/>
		</linearGradient>
		<path class="st40" d="M1898.4,1419.1v-122.8h26v122.8H1898.4z"/>
		
			<linearGradient id="SVGID_12_" gradientUnits="userSpaceOnUse" x1="2012.7001" y1="705.6" x2="2012.7001" y2="579.2" gradientTransform="matrix(1 0 0 -1 0 2000)">
			<stop  offset="0" style="stop-color:#BC8F31"/>
			<stop  offset="0.2598" style="stop-color:#DFC04F"/>
			<stop  offset="0.4832" style="stop-color:#F4E180"/>
			<stop  offset="0.7179" style="stop-color:#EFD65E"/>
			<stop  offset="1" style="stop-color:#C3983A"/>
		</linearGradient>
		<path class="st41" d="M2071.1,1357.5c0,20.3-5,35.9-15.1,46.9s-24.5,16.4-43.3,16.4s-33.3-5.5-43.3-16.4s-15.1-26.6-15.1-47
			s5.1-36,15.2-46.8s24.6-16.2,43.5-16.2s33.3,5.4,43.3,16.3C2066.1,1321.5,2071.1,1337.1,2071.1,1357.5z M1981.5,1357.5
			c0,13.7,2.6,24,7.8,31c5.2,6.9,13,10.4,23.3,10.4c20.8,0,31.2-13.8,31.2-41.4c0-27.7-10.3-41.5-31-41.5
			c-10.4,0-18.2,3.5-23.4,10.5C1984.1,1333.4,1981.5,1343.8,1981.5,1357.5z"/>
		
			<linearGradient id="SVGID_13_" gradientUnits="userSpaceOnUse" x1="2133.25" y1="705.6504" x2="2133.25" y2="579.2539" gradientTransform="matrix(1 0 0 -1 0 2000)">
			<stop  offset="0" style="stop-color:#BC8F31"/>
			<stop  offset="0.2598" style="stop-color:#DFC04F"/>
			<stop  offset="0.4832" style="stop-color:#F4E180"/>
			<stop  offset="0.7179" style="stop-color:#EFD65E"/>
			<stop  offset="1" style="stop-color:#C3983A"/>
		</linearGradient>
		<path class="st42" d="M2173.3,1385c0,11.1-4,19.8-12,26.2s-19.1,9.6-33.3,9.6c-13.1,0-24.7-2.5-34.8-7.4v-24.2
			c8.3,3.7,15.3,6.3,21,7.8s11,2.3,15.7,2.3c5.7,0,10.1-1.1,13.1-3.3c3.1-2.2,4.6-5.4,4.6-9.7c0-2.4-0.7-4.5-2-6.4s-3.3-3.7-5.9-5.4
			c-2.6-1.7-7.9-4.5-15.9-8.3c-7.5-3.5-13.1-6.9-16.9-10.2c-3.8-3.2-6.7-7-9-11.3c-2.2-4.3-3.4-9.3-3.4-15.1
			c0-10.9,3.7-19.4,11-25.6c7.4-6.2,17.5-9.3,30.5-9.3c6.4,0,12.5,0.8,18.3,2.3s11.9,3.6,18.2,6.4l-8.4,20.2
			c-6.6-2.7-12-4.6-16.3-5.6c-4.3-1.1-8.5-1.6-12.6-1.6c-4.9,0-8.7,1.1-11.3,3.4s-3.9,5.3-3.9,9c0,2.3,0.5,4.3,1.6,6s2.8,3.4,5.1,5
			s7.8,4.5,16.5,8.6c11.5,5.5,19.3,11,23.6,16.5C2171.2,1370.2,2173.3,1377,2173.3,1385z"/>
	</g>
</g>
<linearGradient id="SVGID_14_" gradientUnits="userSpaceOnUse" x1="1661.484" y1="1067.0254" x2="1351.4557" y2="941.7658">
	<stop  offset="8.225860e-03" style="stop-color:#A47727"/>
	<stop  offset="0.1328" style="stop-color:#BC8B2F"/>
	<stop  offset="0.4087" style="stop-color:#C09434"/>
	<stop  offset="0.4816" style="stop-color:#E1B335"/>
	<stop  offset="0.6372" style="stop-color:#F5D772"/>
	<stop  offset="0.7352" style="stop-color:#CA9E35"/>
	<stop  offset="0.8282" style="stop-color:#9A7024"/>
</linearGradient>
<linearGradient id="SVGID_15_" gradientUnits="userSpaceOnUse" x1="1341.9058" y1="985.3248" x2="1643.9291" y2="985.3248">
	<stop  offset="0" style="stop-color:#B2802C"/>
	<stop  offset="5.434960e-02" style="stop-color:#B5852D"/>
	<stop  offset="0.1324" style="stop-color:#C09434"/>
	<stop  offset="0.2361" style="stop-color:#D2AF43"/>
	<stop  offset="0.3275" style="stop-color:#F2DA60"/>
	<stop  offset="0.3333" style="stop-color:#F4DD62"/>
	<stop  offset="0.5161" style="stop-color:#F4E38B"/>
	<stop  offset="0.6613" style="stop-color:#F4DD62"/>
	<stop  offset="1" style="stop-color:#B2802C"/>
</linearGradient>
<path class="st43" d="M1601.5,1037.6c-13.6-10.1-67-34.6-67-34.6s21.4-53.8,38.3-135.8c16.9-82-51.8-115.3-78.3-121.7
	c-26.5-6.4-63.7,0-63.7,0s17.9,13.7,26.1,55c7.9,39.9,6.6,50.1,6.6,50.1s-61.9,15.6-94.7,68.6c-23.9,38.7-6.2,67.9,1.1,83.3
	c7.3,15.4,12.4,22.7,12.4,22.7s-31.5,54.4-36.3,91c-11.5,88,65.4,126.5,165.3,107.2C1600.1,1206.1,1696.9,1108.4,1601.5,1037.6z
	 M1433.3,899.7c4.5-11.2,28.5-22.6,28.5-22.6s-6.1,27-9.1,35.4c-3,8.4-15.6,34.4-15.6,34.4S1424.6,921.4,1433.3,899.7z
	 M1543.5,1190.3c-16.4,13.2-71.7,24.6-80.8,22.1c-9.1-2.5-14-11.5-13.9-19.6c0.4-36,27.9-74.4,27.9-74.4s59.3,27.7,74.3,38.2
	C1566,1167.2,1561.9,1175.4,1543.5,1190.3z"/>
<g>
	<circle id="XMLID_5_" class="st44" cx="4445" cy="609.6" r="54.9"/>
	<path class="st45" d="M4553.8,1009.1c-13.6-10.1-67-34.6-67-34.6s21.4-53.8,38.3-135.8c16.9-82-51.8-115.3-78.3-121.7
		c-26.5-6.4-63.7,0-63.7,0s17.9,13.7,26.1,55c7.9,39.9,6.6,50.1,6.6,50.1s-61.9,15.6-94.7,68.6c-23.9,38.7-6.2,67.9,1.1,83.3
		c7.3,15.4,12.4,22.7,12.4,22.7s-31.5,54.4-36.3,91c-11.5,88,65.4,126.5,165.3,107.2C4552.3,1177.6,4649.2,1079.9,4553.8,1009.1z
		 M4385.6,871.2c4.5-11.2,28.5-22.6,28.5-22.6s-6.1,27-9.1,35.4c-3,8.4-15.6,34.4-15.6,34.4S4377,892.9,4385.6,871.2z
		 M4495.8,1161.8c-16.4,13.2-71.7,24.6-80.8,22.1c-9.1-2.5-14-11.5-13.9-19.6c0.4-36,27.9-74.4,27.9-74.4s59.3,27.7,74.3,38.2
		C4518.4,1138.7,4514.2,1146.9,4495.8,1161.8z"/>
</g>
</svg>
