<?xml version="1.0" encoding="UTF-8" standalone="no"?>
<!DOCTYPE svg PUBLIC "-//W3C//DTD SVG 1.1//EN" "http://www.w3.org/Graphics/SVG/1.1/DTD/svg11.dtd">
<svg version="1.1" xmlns="http://www.w3.org/2000/svg" xmlns:xlink="http://www.w3.org/1999/xlink" preserveAspectRatio="xMidYMid meet" viewBox="283.84702066666677 227.58266666666668 69.26554466666653 144.17420966666663" width="63.15" height="137.61"><defs><path d="M318.49 231.08C312.02 231.08 306.77 236.33 306.77 242.79C306.77 249.26 312.02 254.51 318.49 254.51C324.95 254.51 330.2 249.26 330.2 242.79C330.2 236.33 324.95 231.08 318.49 231.08Z" id="dYGSqDT7I"></path><linearGradient id="gradientc2FV7Tx0Pp" gradientUnits="userSpaceOnUse" x1="326.24" y1="245.93" x2="306.63" y2="238.01"><stop style="stop-color: #a47727;stop-opacity: 1" offset="0.8225859999999999%"></stop><stop style="stop-color: #bc8b2f;stop-opacity: 1" offset="15.65%"></stop><stop style="stop-color: #c09434;stop-opacity: 1" offset="21.11%"></stop><stop style="stop-color: #e1b335;stop-opacity: 1" offset="29.09%"></stop><stop style="stop-color: #f5d772;stop-opacity: 1" offset="51.15%"></stop><stop style="stop-color: #ca9e35;stop-opacity: 1" offset="71.57%"></stop><stop style="stop-color: #9a7024;stop-opacity: 1" offset="95.69%"></stop></linearGradient><path d="M313.86 265.11L314.32 265.13L314.78 265.15L315.24 265.18L315.7 265.22L316.16 265.26L316.62 265.31L317.07 265.37L317.52 265.44L317.96 265.52L318.4 265.61L318.83 265.71L319.27 265.82L319.74 265.96L320.24 266.11L320.77 266.29L321.32 266.5L321.89 266.72L322.48 266.98L323.08 267.25L323.7 267.55L324.33 267.88L324.97 268.23L325.61 268.61L326.26 269.02L326.9 269.45L327.55 269.91L328.19 270.4L328.82 270.91L329.44 271.46L330.05 272.04L330.65 272.64L331.23 273.28L331.79 273.94L332.33 274.64L332.84 275.37L333.32 276.13L333.77 276.92L334.2 277.75L334.58 278.6L334.93 279.5L335.24 280.42L335.5 281.39L335.72 282.38L335.89 283.41L336.01 284.48L336.08 285.59L336.09 286.73L336.05 287.91L335.94 289.12L335.77 290.38L335.53 291.67L335.26 292.97L334.98 294.25L334.71 295.5L334.43 296.73L334.14 297.94L333.86 299.12L333.58 300.27L333.3 301.4L333.01 302.5L332.73 303.58L332.45 304.62L332.18 305.64L331.9 306.63L331.63 307.59L331.36 308.52L331.1 309.42L330.84 310.29L330.58 311.13L330.34 311.94L330.09 312.71L329.86 313.46L329.63 314.17L329.41 314.84L329.2 315.48L328.99 316.09L328.8 316.66L328.62 317.19L328.44 317.69L328.28 318.15L328.13 318.57L327.99 318.96L327.86 319.31L327.75 319.61L327.65 319.88L327.56 320.11L327.49 320.3L327.43 320.45L327.39 320.55L327.37 320.62L327.36 320.64L327.58 320.75L327.83 320.88L328.09 321.01L328.38 321.15L328.68 321.29L328.99 321.44L329.32 321.6L329.67 321.77L330.02 321.94L330.39 322.11L330.77 322.29L331.16 322.48L331.56 322.67L331.96 322.86L332.37 323.06L332.79 323.26L333.21 323.46L333.64 323.66L334.06 323.87L334.49 324.08L334.92 324.29L335.35 324.5L335.77 324.71L336.19 324.92L336.61 325.13L337.02 325.34L337.43 325.55L337.83 325.76L338.22 325.96L338.6 326.17L338.97 326.37L339.33 326.57L339.67 326.76L340.01 326.96L340.32 327.15L340.63 327.33L340.91 327.51L341.18 327.69L341.43 327.86L341.65 328.02L343.1 329.16L344.4 330.33L345.56 331.51L346.57 332.7L347.45 333.91L348.19 335.13L348.8 336.36L349.29 337.59L349.65 338.83L349.9 340.07L350.03 341.31L350.05 342.55L349.97 343.78L349.79 345.01L349.5 346.23L349.13 347.44L348.66 348.63L348.11 349.81L347.48 350.98L346.77 352.12L345.98 353.24L345.13 354.34L344.21 355.42L343.23 356.46L342.19 357.48L341.1 358.46L339.96 359.41L338.77 360.32L337.54 361.2L336.27 362.03L334.97 362.82L333.64 363.57L332.28 364.27L330.91 364.92L329.51 365.52L328.1 366.06L326.68 366.55L325.26 366.98L323.83 367.35L322.41 367.66L320.82 367.94L319.25 368.18L317.7 368.38L316.18 368.53L314.68 368.63L313.2 368.69L311.75 368.7L310.32 368.66L308.93 368.59L307.56 368.46L306.23 368.29L304.93 368.08L303.67 367.83L302.43 367.53L301.24 367.18L300.08 366.79L298.97 366.36L297.89 365.89L296.86 365.37L295.87 364.81L294.92 364.2L294.02 363.56L293.17 362.87L292.36 362.14L291.61 361.36L290.9 360.54L290.25 359.69L289.65 358.79L289.11 357.84L288.62 356.86L288.2 355.84L287.83 354.77L287.52 353.67L287.27 352.52L287.08 351.33L286.96 350.1L286.91 348.83L286.92 347.53L287 346.18L287.15 344.79L287.23 344.2L287.34 343.59L287.47 342.97L287.61 342.35L287.77 341.71L287.95 341.07L288.14 340.42L288.35 339.77L288.56 339.12L288.79 338.46L289.03 337.81L289.27 337.15L289.52 336.5L289.78 335.86L290.05 335.22L290.31 334.58L290.59 333.96L290.86 333.35L291.13 332.74L291.4 332.15L291.67 331.58L291.94 331.02L292.2 330.48L292.46 329.96L292.71 329.46L292.95 328.98L293.19 328.52L293.41 328.09L293.62 327.69L293.82 327.31L294.01 326.96L294.18 326.65L294.34 326.36L294.48 326.11L294.6 325.89L294.7 325.71L294.78 325.57L294.84 325.46L294.88 325.4L294.89 325.38L294.88 325.36L294.87 325.35L294.86 325.33L294.84 325.3L294.82 325.27L294.79 325.23L294.77 325.19L294.73 325.14L294.7 325.08L294.66 325.02L294.61 324.95L294.57 324.88L294.52 324.8L294.46 324.71L294.41 324.62L294.35 324.52L294.29 324.41L294.22 324.3L294.15 324.19L294.08 324.06L294.01 323.93L293.93 323.8L293.85 323.66L293.77 323.51L293.68 323.36L293.59 323.19L293.5 323.03L293.41 322.86L293.32 322.68L293.22 322.49L293.12 322.3L293.02 322.1L292.91 321.9L292.81 321.68L292.7 321.47L292.59 321.24L292.48 321.01L292.36 320.78L292.25 320.53L292.12 320.28L292 320.02L291.86 319.74L291.72 319.46L291.58 319.17L291.43 318.86L291.28 318.54L291.13 318.22L290.98 317.88L290.83 317.53L290.69 317.17L290.54 316.81L290.4 316.43L290.27 316.04L290.14 315.64L290.02 315.24L289.91 314.82L289.81 314.39L289.71 313.96L289.63 313.51L289.56 313.06L289.51 312.59L289.47 312.12L289.44 311.64L289.43 311.15L289.44 310.65L289.47 310.14L289.52 309.62L289.59 309.09L289.68 308.56L289.79 308.02L289.93 307.47L290.09 306.91L290.28 306.34L290.49 305.76L290.74 305.18L291.01 304.59L291.31 303.99L291.64 303.38L292.01 302.76L292.55 301.93L293.1 301.13L293.68 300.35L294.28 299.61L294.89 298.89L295.51 298.2L296.15 297.53L296.8 296.9L297.46 296.29L298.12 295.71L298.79 295.15L299.46 294.62L300.13 294.11L300.81 293.62L301.48 293.16L302.14 292.73L302.81 292.31L303.46 291.92L304.1 291.55L304.74 291.21L305.36 290.88L305.96 290.57L306.55 290.29L307.12 290.02L307.67 289.78L308.19 289.55L308.7 289.34L309.17 289.15L309.62 288.98L310.04 288.82L310.43 288.69L310.78 288.56L311.1 288.46L311.39 288.37L311.63 288.29L311.84 288.23L312 288.19L312.12 288.15L312.19 288.13L312.21 288.13L312.21 288.12L312.22 288.11L312.22 288.09L312.22 288.06L312.22 288.02L312.22 287.97L312.23 287.91L312.23 287.83L312.23 287.75L312.23 287.66L312.23 287.55L312.23 287.43L312.22 287.3L312.22 287.15L312.21 286.99L312.2 286.82L312.19 286.63L312.18 286.43L312.16 286.21L312.14 285.98L312.12 285.73L312.09 285.46L312.06 285.18L312.03 284.88L311.99 284.56L311.95 284.23L311.9 283.87L311.85 283.5L311.8 283.11L311.74 282.7L311.67 282.27L311.6 281.82L311.52 281.35L311.44 280.86L311.35 280.34L311.25 279.81L311.15 279.25L311.04 278.67L310.93 278.07L310.81 277.44L310.67 276.79L310.53 276.16L310.38 275.56L310.22 274.97L310.06 274.41L309.9 273.86L309.73 273.34L309.55 272.84L309.38 272.35L309.2 271.89L309.02 271.45L308.83 271.02L308.65 270.61L308.46 270.23L308.27 269.86L308.09 269.5L307.91 269.17L307.72 268.85L307.54 268.55L307.37 268.27L307.19 268L307.02 267.75L306.85 267.52L306.69 267.3L306.54 267.1L306.39 266.91L306.25 266.73L306.11 266.58L305.98 266.43L305.86 266.3L305.75 266.18L305.65 266.08L305.56 265.99L305.48 265.91L305.4 265.85L305.35 265.8L305.3 265.76L305.27 265.73L305.24 265.71L305.24 265.71L305.25 265.7L305.3 265.7L305.37 265.69L305.47 265.67L305.59 265.65L305.74 265.63L305.91 265.6L306.11 265.58L306.33 265.55L306.57 265.51L306.83 265.48L307.1 265.45L307.4 265.41L307.72 265.38L308.05 265.35L308.39 265.31L308.75 265.28L309.13 265.25L309.51 265.22L309.91 265.19L310.32 265.17L310.74 265.15L311.17 265.13L311.6 265.12L312.04 265.11L312.49 265.1L312.94 265.1L313.4 265.1L313.86 265.11ZM314.66 345.81L314.24 346.46L313.7 347.33L313.09 348.4L312.43 349.64L311.74 351.03L311.08 352.54L310.46 354.15L309.92 355.84L309.48 357.58L309.19 359.35L309.08 361.13L309.09 361.53L309.14 361.94L309.23 362.34L309.36 362.73L309.52 363.12L309.71 363.49L309.94 363.84L310.21 364.17L310.51 364.47L310.84 364.74L311.21 364.97L311.61 365.17L312.04 365.31L312.66 365.38L313.57 365.36L314.74 365.24L316.11 365.04L317.62 364.76L319.24 364.41L320.92 364L322.59 363.53L324.22 363.01L325.76 362.45L327.14 361.86L328.33 361.24L329.28 360.6L330.13 359.89L330.87 359.22L331.5 358.6L332.01 358.01L332.4 357.45L332.66 356.92L332.81 356.4L332.82 355.9L332.71 355.41L332.46 354.92L332.07 354.42L331.55 353.92L330.88 353.41L329.98 352.83L328.81 352.15L327.43 351.39L325.89 350.58L324.25 349.74L322.58 348.9L320.94 348.09L319.39 347.34L317.98 346.66L316.78 346.09L315.85 345.64L315.24 345.36L315.03 345.26L314.93 345.4L314.66 345.81ZM309.95 294.93L308.71 295.66L307.5 296.51L306.47 297.48L305.77 298.6L305.19 300.96L305.16 303.27L305.48 305.37L305.96 307.09L306.39 308.25L306.58 308.67L306.78 308.25L307.3 307.17L308.01 305.67L308.76 304.03L309.44 302.5L309.91 301.33L310.28 300.15L310.7 298.58L311.12 296.89L311.49 295.34L311.75 294.22L311.85 293.78L311.04 294.31L309.95 294.93Z" id="e80R7MG2p"></path><linearGradient id="gradientawq1wuuLK" gradientUnits="userSpaceOnUse" x1="354.44" y1="334.3" x2="288.31" y2="307.58"><stop style="stop-color: #a47727;stop-opacity: 1" offset="0.8225859999999999%"></stop><stop style="stop-color: #bc8b2f;stop-opacity: 1" offset="13.28%"></stop><stop style="stop-color: #c09434;stop-opacity: 1" offset="40.87%"></stop><stop style="stop-color: #e1b335;stop-opacity: 1" offset="48.16%"></stop><stop style="stop-color: #f5d772;stop-opacity: 1" offset="63.72%"></stop><stop style="stop-color: #ca9e35;stop-opacity: 1" offset="73.52%"></stop><stop style="stop-color: #9a7024;stop-opacity: 1" offset="82.82000000000001%"></stop></linearGradient></defs><g><g><use xlink:href="#dYGSqDT7I" opacity="1" fill="url(#gradientc2FV7Tx0Pp)"></use></g><g><use xlink:href="#e80R7MG2p" opacity="1" fill="url(#gradientawq1wuuLK)"></use></g></g></svg>