<?xml version="1.0" encoding="UTF-8" standalone="no"?>
<!DOCTYPE svg PUBLIC "-//W3C//DTD SVG 1.1//EN" "http://www.w3.org/Graphics/SVG/1.1/DTD/svg11.dtd">
<svg version="1.1" xmlns="http://www.w3.org/2000/svg" xmlns:xlink="http://www.w3.org/1999/xlink" preserveAspectRatio="xMidYMid meet" viewBox="168.92000000000002 381.8053333333334 301.13066666666674 30.965333333333263" width="297.13" height="26.97"><defs><path d="M169.92 383.21L175.47 383.21L175.47 409.41L169.92 409.41L169.92 383.21Z" id="b1rAAy40FB"></path><path d="M203.33 394.69C203.33 402.84 203.33 407.37 203.33 408.28C201.64 408.83 200.06 409.22 198.57 409.43C197.08 409.64 195.56 409.77 194.01 409.77C190.06 409.77 187.03 408.62 184.94 406.29C182.85 403.97 181.8 400.64 181.8 396.29C181.8 392.06 183.02 388.76 185.43 386.39C187.84 384.02 191.21 382.85 195.5 382.85C198.19 382.85 200.77 383.38 203.26 384.47C203.08 384.91 201.59 388.46 201.41 388.91C199.49 387.95 197.5 387.48 195.43 387.48C193.02 387.48 191.1 388.29 189.67 389.89C188.22 391.51 187.5 393.66 187.5 396.39C187.5 399.23 188.07 401.41 189.25 402.9C190.42 404.39 192.11 405.14 194.33 405.14C195.48 405.14 196.65 405.01 197.85 404.78C197.85 404.41 197.85 402.59 197.85 399.32L192.87 399.32L192.87 394.69L192.94 394.69L203.33 394.69Z" id="dHWYoX83t"></path><path d="M226.67 409.41L215.27 389.59C215.17 389.59 215.12 389.59 215.1 389.59C215.34 393.09 215.45 395.58 215.45 397.08C215.45 397.9 215.45 402.01 215.45 409.41L210.47 409.41L210.47 383.21L217.47 383.21L228.84 402.84C228.92 402.84 228.96 402.84 228.97 402.84C228.8 399.42 228.69 397.03 228.69 395.63C228.69 394.8 228.69 390.67 228.69 383.23L233.69 383.23L233.69 409.41L233.73 409.41L226.67 409.41Z" id="a19aT8VQc"></path><path d="M241.24 383.21L246.78 383.21L246.78 409.41L241.24 409.41L241.24 383.21Z" id="f1mLjkwxKc"></path><path d="M258.86 409.41L258.86 387.84L251.73 387.84L251.73 383.21L271.51 383.21L271.51 387.84L264.41 387.84L264.41 409.41L264.41 409.41L258.86 409.41Z" id="a3mGBnWMUe"></path><path d="M276.46 409.41L276.46 383.21L291.54 383.21L291.54 387.75L282.03 387.75L282.03 393.51L290.9 393.51L290.9 398.06L282.03 398.06L282.03 404.82L291.56 404.82L291.54 409.41L291.54 409.41L276.46 409.41Z" id="b3pqKHaRWx"></path><path d="M321.28 407.72C319.57 409.09 317.21 409.77 314.18 409.77C311.38 409.77 308.91 409.24 306.75 408.19C306.75 407.68 306.75 403.55 306.75 403.03C308.52 403.82 310.02 404.37 311.23 404.69C312.45 405.01 313.58 405.18 314.58 405.18C315.8 405.18 316.74 404.95 317.38 404.48C318.04 404.01 318.36 403.33 318.36 402.41C318.36 401.9 318.21 401.45 317.93 401.05C317.65 400.64 317.23 400.26 316.67 399.89C316.12 399.53 314.99 398.93 313.28 398.12C311.68 397.38 310.49 396.65 309.67 395.95C308.86 395.26 308.25 394.45 307.75 393.54C307.29 392.62 307.03 391.55 307.03 390.31C307.03 387.99 307.82 386.18 309.38 384.85C310.95 383.53 313.11 382.87 315.88 382.87C317.25 382.87 318.55 383.04 319.79 383.36C321.02 383.68 322.33 384.13 323.67 384.73C323.49 385.16 322.06 388.6 321.88 389.03C320.47 388.46 319.32 388.05 318.4 387.84C317.48 387.61 316.59 387.5 315.71 387.5C314.67 387.5 313.86 387.73 313.3 388.22C312.75 388.71 312.47 389.35 312.47 390.14C312.47 390.63 312.58 391.06 312.81 391.42C313.05 391.79 313.41 392.15 313.9 392.49C314.39 392.83 315.56 393.45 317.42 394.33C319.87 395.5 321.54 396.67 322.45 397.85C323.39 398.98 323.84 400.43 323.84 402.13C323.84 404.5 322.99 406.36 321.28 407.72Z" id="b1v1RgntN"></path><path d="M334.06 409.41L334.06 387.84L326.95 387.84L326.95 383.21L346.73 383.21L346.73 387.84L339.63 387.84L339.61 409.41L339.61 409.41L334.06 409.41Z" id="g5jHuxSXjT"></path><path d="M372.99 400.15C372.99 402.09 372.57 403.78 371.69 405.25C370.82 406.7 369.58 407.83 367.94 408.6C366.29 409.37 364.37 409.77 362.13 409.77C358.76 409.77 356.14 408.92 354.28 407.19C352.43 405.46 351.49 403.09 351.49 400.11C351.49 398.98 351.49 393.36 351.49 383.23L357.03 383.23C357.03 392.86 357.03 398.21 357.03 399.27C357.03 401.3 357.44 402.77 358.25 403.71C359.06 404.65 360.41 405.12 362.28 405.12C364.1 405.12 365.42 404.65 366.23 403.69C367.04 402.73 367.47 401.26 367.47 399.21C367.47 398.14 367.47 392.81 367.47 383.21L372.99 383.21L372.99 383.21C372.99 393.37 372.99 399.02 372.99 400.15Z" id="bKV51so22"></path><path d="M389.99 383.24L390.69 383.29L391.38 383.38L392.04 383.48L392.69 383.61L393.31 383.76L393.92 383.94L394.51 384.14L395.07 384.36L395.62 384.61L396.15 384.88L396.65 385.17L397.14 385.49L397.61 385.83L398.06 386.19L398.49 386.58L398.89 386.99L399.27 387.42L399.63 387.86L399.96 388.33L400.27 388.81L400.55 389.31L400.81 389.83L401.05 390.37L401.26 390.93L401.44 391.5L401.6 392.1L401.74 392.71L401.85 393.34L401.94 393.99L402 394.66L402.04 395.35L402.05 396.05L402.04 396.8L402 397.53L401.93 398.24L401.84 398.93L401.73 399.59L401.59 400.24L401.42 400.87L401.23 401.47L401.01 402.05L400.77 402.61L400.5 403.15L400.21 403.67L399.89 404.17L399.54 404.65L399.17 405.1L398.78 405.54L398.36 405.95L397.91 406.34L397.45 406.71L396.96 407.05L396.44 407.38L395.91 407.67L395.35 407.95L394.77 408.2L394.17 408.42L393.55 408.62L392.9 408.8L392.23 408.96L391.54 409.09L390.82 409.2L390.08 409.28L389.32 409.34L388.54 409.37L387.73 409.39L380.31 409.39L380.31 383.19L388.52 383.19L389.27 383.2L389.99 383.24ZM385.88 404.82L388.27 404.82L389.95 404.71L391.44 404.39L392.73 403.86L393.82 403.12L394.71 402.16L395.4 400.99L395.89 399.6L396.19 398.01L396.29 396.2L396.2 394.43L395.92 392.87L395.46 391.51L394.82 390.36L393.99 389.42L392.98 388.69L391.79 388.17L390.41 387.86L388.84 387.75L385.88 387.75L385.88 404.82Z" id="b6waBdD9OS"></path><path d="M408.41 383.21L413.95 383.21L413.95 409.41L408.41 409.41L408.41 383.21Z" id="e1fH3kMdYf"></path><path d="M434.32 382.86L435.02 382.93L435.7 383.02L436.35 383.14L436.99 383.29L437.6 383.47L438.18 383.67L438.75 383.9L439.29 384.16L439.82 384.45L440.31 384.76L440.79 385.1L441.25 385.47L441.68 385.86L442.09 386.28L442.47 386.73L442.83 387.19L443.16 387.69L443.47 388.2L443.75 388.74L444.01 389.31L444.24 389.89L444.45 390.51L444.64 391.14L444.8 391.8L444.94 392.49L445.05 393.19L445.14 393.93L445.2 394.68L445.24 395.46L445.25 396.27L445.24 397.07L445.2 397.84L445.14 398.6L445.05 399.33L444.93 400.03L444.8 400.72L444.63 401.38L444.45 402.01L444.23 402.63L443.99 403.22L443.73 403.78L443.44 404.33L443.12 404.85L442.78 405.35L442.42 405.82L442.03 406.27L441.61 406.7L441.18 407.1L440.72 407.47L440.24 407.81L439.74 408.12L439.21 408.41L438.67 408.67L438.1 408.9L437.52 409.11L436.91 409.28L436.27 409.43L435.62 409.55L434.95 409.65L434.25 409.72L433.53 409.76L432.79 409.77L432.05 409.76L431.33 409.72L430.63 409.65L429.95 409.55L429.3 409.43L428.67 409.28L428.06 409.1L427.47 408.89L426.9 408.66L426.35 408.4L425.83 408.11L425.33 407.8L424.85 407.46L424.4 407.09L423.96 406.69L423.55 406.27L423.16 405.82L422.8 405.35L422.46 404.86L422.15 404.34L421.86 403.79L421.6 403.23L421.36 402.63L421.14 402.02L420.95 401.38L420.79 400.72L420.65 400.03L420.53 399.32L420.45 398.59L420.38 397.83L420.34 397.05L420.33 396.25L420.34 395.44L420.38 394.66L420.45 393.91L420.53 393.17L420.65 392.47L420.79 391.78L420.95 391.12L421.14 390.49L421.36 389.87L421.6 389.29L421.87 388.72L422.16 388.18L422.47 387.67L422.82 387.17L423.18 386.71L423.57 386.26L423.99 385.84L424.43 385.45L424.88 385.09L425.37 384.75L425.87 384.44L426.39 384.16L426.94 383.9L427.51 383.67L428.1 383.47L428.71 383.29L429.35 383.14L430.01 383.02L430.68 382.93L431.39 382.86L432.11 382.82L432.85 382.81L433.6 382.82L434.32 382.86ZM431.55 387.5L430.96 387.61L430.41 387.77L429.9 387.97L429.42 388.22L428.97 388.51L428.55 388.85L428.17 389.23L427.82 389.65L427.5 390.12L427.21 390.63L426.96 391.18L426.74 391.78L426.55 392.42L426.4 393.1L426.28 393.83L426.2 394.6L426.15 395.41L426.13 396.27L426.15 397.12L426.2 397.93L426.28 398.7L426.4 399.43L426.55 400.11L426.73 400.75L426.95 401.35L427.2 401.9L427.48 402.41L427.8 402.88L428.15 403.3L428.53 403.68L428.94 404.01L429.39 404.3L429.87 404.54L430.39 404.74L430.93 404.9L431.51 405.01L432.12 405.08L432.77 405.1L434.03 405.01L435.16 404.75L436.16 404.3L437.03 403.69L437.76 402.89L438.36 401.92L438.82 400.77L439.16 399.45L439.36 397.94L439.42 396.27L439.36 394.58L439.16 393.08L438.83 391.75L438.37 390.6L437.77 389.62L437.05 388.83L436.19 388.21L435.19 387.77L434.07 387.5L432.81 387.41L432.16 387.44L431.55 387.5Z" id="b1u5xpKitf"></path><path d="M464.49 407.72C462.78 409.09 460.42 409.77 457.39 409.77C454.59 409.77 452.12 409.24 449.96 408.19C449.96 407.68 449.96 403.55 449.96 403.03C451.73 403.82 453.23 404.37 454.44 404.69C455.66 405.01 456.79 405.18 457.79 405.18C459.01 405.18 459.95 404.95 460.59 404.48C461.25 404.01 461.57 403.33 461.57 402.41C461.57 401.9 461.42 401.45 461.14 401.05C460.86 400.64 460.44 400.26 459.88 399.89C459.33 399.53 458.2 398.93 456.49 398.12C454.89 397.38 453.7 396.65 452.89 395.95C452.07 395.26 451.46 394.45 450.97 393.54C450.5 392.62 450.24 391.55 450.24 390.31C450.24 387.99 451.03 386.18 452.59 384.85C454.17 383.53 456.32 382.87 459.09 382.87C460.46 382.87 461.76 383.04 463 383.36C464.23 383.68 465.54 384.13 466.88 384.73C466.7 385.16 465.27 388.6 465.09 389.03C463.68 388.46 462.53 388.05 461.61 387.84C460.69 387.61 459.8 387.5 458.92 387.5C457.88 387.5 457.07 387.73 456.51 388.22C455.96 388.71 455.68 389.35 455.68 390.14C455.68 390.63 455.79 391.06 456.02 391.42C456.26 391.79 456.62 392.15 457.11 392.49C457.6 392.83 458.77 393.45 460.63 394.33C463.08 395.5 464.75 396.67 465.66 397.85C466.6 398.98 467.05 400.43 467.05 402.13C467.05 404.5 466.2 406.36 464.49 407.72Z" id="ai9oubsPD"></path><path d="M169.92 383.21L175.47 383.21L175.47 409.41L169.92 409.41L169.92 383.21Z" id="aEJpRkxZj"></path><path d="M203.33 394.69C203.33 402.84 203.33 407.37 203.33 408.28C201.64 408.83 200.06 409.22 198.57 409.43C197.08 409.64 195.56 409.77 194.01 409.77C190.06 409.77 187.03 408.62 184.94 406.29C182.85 403.97 181.8 400.64 181.8 396.29C181.8 392.06 183.02 388.76 185.43 386.39C187.84 384.02 191.21 382.85 195.5 382.85C198.19 382.85 200.77 383.38 203.26 384.47C203.08 384.91 201.59 388.46 201.41 388.91C199.49 387.95 197.5 387.48 195.43 387.48C193.02 387.48 191.1 388.29 189.67 389.89C188.22 391.51 187.5 393.66 187.5 396.39C187.5 399.23 188.07 401.41 189.25 402.9C190.42 404.39 192.11 405.14 194.33 405.14C195.48 405.14 196.65 405.01 197.85 404.78C197.85 404.41 197.85 402.59 197.85 399.32L192.87 399.32L192.87 394.69L192.94 394.69L203.33 394.69Z" id="fbgPZUkYx"></path><path d="M226.67 409.41L215.27 389.59C215.17 389.59 215.12 389.59 215.1 389.59C215.34 393.09 215.45 395.58 215.45 397.08C215.45 397.9 215.45 402.01 215.45 409.41L210.47 409.41L210.47 383.21L217.47 383.21L228.84 402.84C228.92 402.84 228.96 402.84 228.97 402.84C228.8 399.42 228.69 397.03 228.69 395.63C228.69 394.8 228.69 390.67 228.69 383.23L233.69 383.23L233.69 409.41L233.73 409.41L226.67 409.41Z" id="d4o1YP2QPu"></path><path d="M241.24 383.21L246.78 383.21L246.78 409.41L241.24 409.41L241.24 383.21Z" id="dpjls5LHq"></path><path d="M258.86 409.41L258.86 387.84L251.73 387.84L251.73 383.21L271.51 383.21L271.51 387.84L264.41 387.84L264.41 409.41L264.41 409.41L258.86 409.41Z" id="c4TkDxNFd8"></path><path d="M276.46 409.41L276.46 383.21L291.54 383.21L291.54 387.75L282.03 387.75L282.03 393.51L290.9 393.51L290.9 398.06L282.03 398.06L282.03 404.82L291.56 404.82L291.54 409.41L291.54 409.41L276.46 409.41Z" id="c13U50vFLp"></path><path d="M321.28 407.72C319.57 409.09 317.21 409.77 314.18 409.77C311.38 409.77 308.91 409.24 306.75 408.19C306.75 407.68 306.75 403.55 306.75 403.03C308.52 403.82 310.02 404.37 311.23 404.69C312.45 405.01 313.58 405.18 314.58 405.18C315.8 405.18 316.74 404.95 317.38 404.48C318.04 404.01 318.36 403.33 318.36 402.41C318.36 401.9 318.21 401.45 317.93 401.05C317.65 400.64 317.23 400.26 316.67 399.89C316.12 399.53 314.99 398.93 313.28 398.12C311.68 397.38 310.49 396.65 309.67 395.95C308.86 395.26 308.25 394.45 307.75 393.54C307.29 392.62 307.03 391.55 307.03 390.31C307.03 387.99 307.82 386.18 309.38 384.85C310.95 383.53 313.11 382.87 315.88 382.87C317.25 382.87 318.55 383.04 319.79 383.36C321.02 383.68 322.33 384.13 323.67 384.73C323.49 385.16 322.06 388.6 321.88 389.03C320.47 388.46 319.32 388.05 318.4 387.84C317.48 387.61 316.59 387.5 315.71 387.5C314.67 387.5 313.86 387.73 313.3 388.22C312.75 388.71 312.47 389.35 312.47 390.14C312.47 390.63 312.58 391.06 312.81 391.42C313.05 391.79 313.41 392.15 313.9 392.49C314.39 392.83 315.56 393.45 317.42 394.33C319.87 395.5 321.54 396.67 322.45 397.85C323.39 398.98 323.84 400.43 323.84 402.13C323.84 404.5 322.99 406.36 321.28 407.72Z" id="b64HIEiZ6z"></path><path d="M334.06 409.41L334.06 387.84L326.95 387.84L326.95 383.21L346.73 383.21L346.73 387.84L339.63 387.84L339.61 409.41L339.61 409.41L334.06 409.41Z" id="a31ONjP3PR"></path><path d="M372.99 400.15C372.99 402.09 372.57 403.78 371.69 405.25C370.82 406.7 369.58 407.83 367.94 408.6C366.29 409.37 364.37 409.77 362.13 409.77C358.76 409.77 356.14 408.92 354.28 407.19C352.43 405.46 351.49 403.09 351.49 400.11C351.49 398.98 351.49 393.36 351.49 383.23L357.03 383.23C357.03 392.86 357.03 398.21 357.03 399.27C357.03 401.3 357.44 402.77 358.25 403.71C359.06 404.65 360.41 405.12 362.28 405.12C364.1 405.12 365.42 404.65 366.23 403.69C367.04 402.73 367.47 401.26 367.47 399.21C367.47 398.14 367.47 392.81 367.47 383.21L372.99 383.21L372.99 383.21C372.99 393.37 372.99 399.02 372.99 400.15Z" id="c164O34VX"></path><path d="M389.99 383.24L390.69 383.29L391.38 383.38L392.04 383.48L392.69 383.61L393.31 383.76L393.92 383.94L394.51 384.14L395.07 384.36L395.62 384.61L396.15 384.88L396.65 385.17L397.14 385.49L397.61 385.83L398.06 386.19L398.49 386.58L398.89 386.99L399.27 387.42L399.63 387.86L399.96 388.33L400.27 388.81L400.55 389.31L400.81 389.83L401.05 390.37L401.26 390.93L401.44 391.5L401.6 392.1L401.74 392.71L401.85 393.34L401.94 393.99L402 394.66L402.04 395.35L402.05 396.05L402.04 396.8L402 397.53L401.93 398.24L401.84 398.93L401.73 399.59L401.59 400.24L401.42 400.87L401.23 401.47L401.01 402.05L400.77 402.61L400.5 403.15L400.21 403.67L399.89 404.17L399.54 404.65L399.17 405.1L398.78 405.54L398.36 405.95L397.91 406.34L397.45 406.71L396.96 407.05L396.44 407.38L395.91 407.67L395.35 407.95L394.77 408.2L394.17 408.42L393.55 408.62L392.9 408.8L392.23 408.96L391.54 409.09L390.82 409.2L390.08 409.28L389.32 409.34L388.54 409.37L387.73 409.39L380.31 409.39L380.31 383.19L388.52 383.19L389.27 383.2L389.99 383.24ZM385.88 404.82L388.27 404.82L389.95 404.71L391.44 404.39L392.73 403.86L393.82 403.12L394.71 402.16L395.4 400.99L395.89 399.6L396.19 398.01L396.29 396.2L396.2 394.43L395.92 392.87L395.46 391.51L394.82 390.36L393.99 389.42L392.98 388.69L391.79 388.17L390.41 387.86L388.84 387.75L385.88 387.75L385.88 404.82Z" id="eOKY0E4p"></path><path d="M408.41 383.21L413.95 383.21L413.95 409.41L408.41 409.41L408.41 383.21Z" id="fywOjE8SU"></path><path d="M434.32 382.86L435.02 382.93L435.7 383.02L436.35 383.14L436.99 383.29L437.6 383.47L438.18 383.67L438.75 383.9L439.29 384.16L439.82 384.45L440.31 384.76L440.79 385.1L441.25 385.47L441.68 385.86L442.09 386.28L442.47 386.73L442.83 387.19L443.16 387.69L443.47 388.2L443.75 388.74L444.01 389.31L444.24 389.89L444.45 390.51L444.64 391.14L444.8 391.8L444.94 392.49L445.05 393.19L445.14 393.93L445.2 394.68L445.24 395.46L445.25 396.27L445.24 397.07L445.2 397.84L445.14 398.6L445.05 399.33L444.93 400.03L444.8 400.72L444.63 401.38L444.45 402.01L444.23 402.63L443.99 403.22L443.73 403.78L443.44 404.33L443.12 404.85L442.78 405.35L442.42 405.82L442.03 406.27L441.61 406.7L441.18 407.1L440.72 407.47L440.24 407.81L439.74 408.12L439.21 408.41L438.67 408.67L438.1 408.9L437.52 409.11L436.91 409.28L436.27 409.43L435.62 409.55L434.95 409.65L434.25 409.72L433.53 409.76L432.79 409.77L432.05 409.76L431.33 409.72L430.63 409.65L429.95 409.55L429.3 409.43L428.67 409.28L428.06 409.1L427.47 408.89L426.9 408.66L426.35 408.4L425.83 408.11L425.33 407.8L424.85 407.46L424.4 407.09L423.96 406.69L423.55 406.27L423.16 405.82L422.8 405.35L422.46 404.86L422.15 404.34L421.86 403.79L421.6 403.23L421.36 402.63L421.14 402.02L420.95 401.38L420.79 400.72L420.65 400.03L420.53 399.32L420.45 398.59L420.38 397.83L420.34 397.05L420.33 396.25L420.34 395.44L420.38 394.66L420.45 393.91L420.53 393.17L420.65 392.47L420.79 391.78L420.95 391.12L421.14 390.49L421.36 389.87L421.6 389.29L421.87 388.72L422.16 388.18L422.47 387.67L422.82 387.17L423.18 386.71L423.57 386.26L423.99 385.84L424.43 385.45L424.88 385.09L425.37 384.75L425.87 384.44L426.39 384.16L426.94 383.9L427.51 383.67L428.1 383.47L428.71 383.29L429.35 383.14L430.01 383.02L430.68 382.93L431.39 382.86L432.11 382.82L432.85 382.81L433.6 382.82L434.32 382.86ZM431.55 387.5L430.96 387.61L430.41 387.77L429.9 387.97L429.42 388.22L428.97 388.51L428.55 388.85L428.17 389.23L427.82 389.65L427.5 390.12L427.21 390.63L426.96 391.18L426.74 391.78L426.55 392.42L426.4 393.1L426.28 393.83L426.2 394.6L426.15 395.41L426.13 396.27L426.15 397.12L426.2 397.93L426.28 398.7L426.4 399.43L426.55 400.11L426.73 400.75L426.95 401.35L427.2 401.9L427.48 402.41L427.8 402.88L428.15 403.3L428.53 403.68L428.94 404.01L429.39 404.3L429.87 404.54L430.39 404.74L430.93 404.9L431.51 405.01L432.12 405.08L432.77 405.1L434.03 405.01L435.16 404.75L436.16 404.3L437.03 403.69L437.76 402.89L438.36 401.92L438.82 400.77L439.16 399.45L439.36 397.94L439.42 396.27L439.36 394.58L439.16 393.08L438.83 391.75L438.37 390.6L437.77 389.62L437.05 388.83L436.19 388.21L435.19 387.77L434.07 387.5L432.81 387.41L432.16 387.44L431.55 387.5Z" id="bCqhWy9x1"></path><path d="M464.49 407.72C462.78 409.09 460.42 409.77 457.39 409.77C454.59 409.77 452.12 409.24 449.96 408.19C449.96 407.68 449.96 403.55 449.96 403.03C451.73 403.82 453.23 404.37 454.44 404.69C455.66 405.01 456.79 405.18 457.79 405.18C459.01 405.18 459.95 404.95 460.59 404.48C461.25 404.01 461.57 403.33 461.57 402.41C461.57 401.9 461.42 401.45 461.14 401.05C460.86 400.64 460.44 400.26 459.88 399.89C459.33 399.53 458.2 398.93 456.49 398.12C454.89 397.38 453.7 396.65 452.89 395.95C452.07 395.26 451.46 394.45 450.97 393.54C450.5 392.62 450.24 391.55 450.24 390.31C450.24 387.99 451.03 386.18 452.59 384.85C454.17 383.53 456.32 382.87 459.09 382.87C460.46 382.87 461.76 383.04 463 383.36C464.23 383.68 465.54 384.13 466.88 384.73C466.7 385.16 465.27 388.6 465.09 389.03C463.68 388.46 462.53 388.05 461.61 387.84C460.69 387.61 459.8 387.5 458.92 387.5C457.88 387.5 457.07 387.73 456.51 388.22C455.96 388.71 455.68 389.35 455.68 390.14C455.68 390.63 455.79 391.06 456.02 391.42C456.26 391.79 456.62 392.15 457.11 392.49C457.6 392.83 458.77 393.45 460.63 394.33C463.08 395.5 464.75 396.67 465.66 397.85C466.6 398.98 467.05 400.43 467.05 402.13C467.05 404.5 466.2 406.36 464.49 407.72Z" id="c4oGaYlG8N"></path></defs><g><g><use xlink:href="#b1rAAy40FB" opacity="1" fill="#d4a741" fill-opacity="1"></use><g><use xlink:href="#b1rAAy40FB" opacity="1" fill-opacity="0" stroke="#d4a741" stroke-width="1" stroke-opacity="1"></use></g></g><g><use xlink:href="#dHWYoX83t" opacity="1" fill="#d4a741" fill-opacity="1"></use><g><use xlink:href="#dHWYoX83t" opacity="1" fill-opacity="0" stroke="#d4a741" stroke-width="1" stroke-opacity="1"></use></g></g><g><use xlink:href="#a19aT8VQc" opacity="1" fill="#d4a741" fill-opacity="1"></use><g><use xlink:href="#a19aT8VQc" opacity="1" fill-opacity="0" stroke="#d4a741" stroke-width="1" stroke-opacity="1"></use></g></g><g><use xlink:href="#f1mLjkwxKc" opacity="1" fill="#d4a741" fill-opacity="1"></use><g><use xlink:href="#f1mLjkwxKc" opacity="1" fill-opacity="0" stroke="#d4a741" stroke-width="1" stroke-opacity="1"></use></g></g><g><use xlink:href="#a3mGBnWMUe" opacity="1" fill="#d4a741" fill-opacity="1"></use><g><use xlink:href="#a3mGBnWMUe" opacity="1" fill-opacity="0" stroke="#d4a741" stroke-width="1" stroke-opacity="1"></use></g></g><g><use xlink:href="#b3pqKHaRWx" opacity="1" fill="#d4a741" fill-opacity="1"></use><g><use xlink:href="#b3pqKHaRWx" opacity="1" fill-opacity="0" stroke="#d4a741" stroke-width="1" stroke-opacity="1"></use></g></g><g><use xlink:href="#b1v1RgntN" opacity="1" fill="#d4a741" fill-opacity="1"></use><g><use xlink:href="#b1v1RgntN" opacity="1" fill-opacity="0" stroke="#d4a741" stroke-width="1" stroke-opacity="1"></use></g></g><g><use xlink:href="#g5jHuxSXjT" opacity="1" fill="#d4a741" fill-opacity="1"></use><g><use xlink:href="#g5jHuxSXjT" opacity="1" fill-opacity="0" stroke="#d4a741" stroke-width="1" stroke-opacity="1"></use></g></g><g><use xlink:href="#bKV51so22" opacity="1" fill="#d4a741" fill-opacity="1"></use><g><use xlink:href="#bKV51so22" opacity="1" fill-opacity="0" stroke="#d4a741" stroke-width="1" stroke-opacity="1"></use></g></g><g><use xlink:href="#b6waBdD9OS" opacity="1" fill="#d4a741" fill-opacity="1"></use><g><use xlink:href="#b6waBdD9OS" opacity="1" fill-opacity="0" stroke="#d4a741" stroke-width="1" stroke-opacity="1"></use></g></g><g><use xlink:href="#e1fH3kMdYf" opacity="1" fill="#d4a741" fill-opacity="1"></use><g><use xlink:href="#e1fH3kMdYf" opacity="1" fill-opacity="0" stroke="#d4a741" stroke-width="1" stroke-opacity="1"></use></g></g><g><use xlink:href="#b1u5xpKitf" opacity="1" fill="#d4a741" fill-opacity="1"></use><g><use xlink:href="#b1u5xpKitf" opacity="1" fill-opacity="0" stroke="#d4a741" stroke-width="1" stroke-opacity="1"></use></g></g><g><use xlink:href="#ai9oubsPD" opacity="1" fill="#d4a741" fill-opacity="1"></use><g><use xlink:href="#ai9oubsPD" opacity="1" fill-opacity="0" stroke="#d4a741" stroke-width="1" stroke-opacity="1"></use></g></g><g><use xlink:href="#aEJpRkxZj" opacity="1" fill="#d4a741" fill-opacity="1"></use><g><use xlink:href="#aEJpRkxZj" opacity="1" fill-opacity="0" stroke="#d4a741" stroke-width="1" stroke-opacity="1"></use></g></g><g><use xlink:href="#fbgPZUkYx" opacity="1" fill="#d4a741" fill-opacity="1"></use><g><use xlink:href="#fbgPZUkYx" opacity="1" fill-opacity="0" stroke="#d4a741" stroke-width="1" stroke-opacity="1"></use></g></g><g><use xlink:href="#d4o1YP2QPu" opacity="1" fill="#d4a741" fill-opacity="1"></use><g><use xlink:href="#d4o1YP2QPu" opacity="1" fill-opacity="0" stroke="#d4a741" stroke-width="1" stroke-opacity="1"></use></g></g><g><use xlink:href="#dpjls5LHq" opacity="1" fill="#d4a741" fill-opacity="1"></use><g><use xlink:href="#dpjls5LHq" opacity="1" fill-opacity="0" stroke="#d4a741" stroke-width="1" stroke-opacity="1"></use></g></g><g><use xlink:href="#c4TkDxNFd8" opacity="1" fill="#d4a741" fill-opacity="1"></use><g><use xlink:href="#c4TkDxNFd8" opacity="1" fill-opacity="0" stroke="#d4a741" stroke-width="1" stroke-opacity="1"></use></g></g><g><use xlink:href="#c13U50vFLp" opacity="1" fill="#d4a741" fill-opacity="1"></use><g><use xlink:href="#c13U50vFLp" opacity="1" fill-opacity="0" stroke="#d4a741" stroke-width="1" stroke-opacity="1"></use></g></g><g><use xlink:href="#b64HIEiZ6z" opacity="1" fill="#d4a741" fill-opacity="1"></use><g><use xlink:href="#b64HIEiZ6z" opacity="1" fill-opacity="0" stroke="#d4a741" stroke-width="1" stroke-opacity="1"></use></g></g><g><use xlink:href="#a31ONjP3PR" opacity="1" fill="#d4a741" fill-opacity="1"></use><g><use xlink:href="#a31ONjP3PR" opacity="1" fill-opacity="0" stroke="#d4a741" stroke-width="1" stroke-opacity="1"></use></g></g><g><use xlink:href="#c164O34VX" opacity="1" fill="#d4a741" fill-opacity="1"></use><g><use xlink:href="#c164O34VX" opacity="1" fill-opacity="0" stroke="#d4a741" stroke-width="1" stroke-opacity="1"></use></g></g><g><use xlink:href="#eOKY0E4p" opacity="1" fill="#d4a741" fill-opacity="1"></use><g><use xlink:href="#eOKY0E4p" opacity="1" fill-opacity="0" stroke="#d4a741" stroke-width="1" stroke-opacity="1"></use></g></g><g><use xlink:href="#fywOjE8SU" opacity="1" fill="#d4a741" fill-opacity="1"></use><g><use xlink:href="#fywOjE8SU" opacity="1" fill-opacity="0" stroke="#d4a741" stroke-width="1" stroke-opacity="1"></use></g></g><g><use xlink:href="#bCqhWy9x1" opacity="1" fill="#d4a741" fill-opacity="1"></use><g><use xlink:href="#bCqhWy9x1" opacity="1" fill-opacity="0" stroke="#d4a741" stroke-width="1" stroke-opacity="1"></use></g></g><g><use xlink:href="#c4oGaYlG8N" opacity="1" fill="#d4a741" fill-opacity="1"></use><g><use xlink:href="#c4oGaYlG8N" opacity="1" fill-opacity="0" stroke="#d4a741" stroke-width="1" stroke-opacity="1"></use></g></g></g></svg>